<svg width="377.92" height="377.92" baseProfile="tiny" viewBox="0 0 1181 1181" xmlns="http://www.w3.org/2000/svg" version="1.2"><g fill="none" stroke="#000" stroke-linejoin="bevel" fill-rule="evenodd" stroke-linecap="square" font-size="37.5" font-family="Sans Serif" font-weight="400"><path d="M-2-2h1185.897v1185.897H-2V-2" fill="#fff" stroke="none"/><path d="M0 0h1181v1181H0V0" fill="#fff" stroke="none"/><path fill="none" d="M0 0h1180.897v1180.897H0z" fill-opacity="0" stroke="none"/><g stroke="#4d7a5d" stroke-width="3.543"><path d="m429.183 822.636-.103 1.17-1.202-.228-.753-.813-.61-.962-.365-1.297.944-.585.916.882.555.955.062.165.556.713M400.17 832.53l-.6.751-.607-.906-.675-.903-1.077-.068.907-.615 1.001-.245.834.728.217 1.258M402.592 834.35l-.072.644-.459-.953-.612-1.541.368.307.81.695-.035.847M383.917 826.111l-.727-.073-.444-1.078-.64-1.094-.293-.968-.833-.539.95-1.342.224.649.712.728.57.864.858.751.162 1-.54 1.102M370.448 805.592l-.474-.494-.16-1.015-1.414.088-1.001.195-2.127.549-1.38-.228-.62-.785.882-.723.948-.433 1.125-.647 1.095-.534 1.162-.479 1.19-.335 1.082-.054 1.044.031.569.884.73.781.21 1.062-1.141-.128.615.858.615.793-.587.844-1.062.379-1.301-.61M322.162 821.038l.146-1.503 1.137-2.774.405-2.375-1.453-.516-1.995-.073-1.492-1.266.06-1.265 1.142-.912 1.9-1.241 1.264-2.417.326-2.368 1.498.505.386 1.478-.83.98 1.21.318 1.112 1.17.069.78-.024.963-.563 1.311v1.722l-.991 2.357-.99 2.015-2.317 3.11M314.802 798.81l-1.89-1.995.618-1.571-1.206-1.02 1.235-1.494 1.024.499.976 2.339-.948.858 1.396 1.396-1.205.987M158.404 932.247l.046-2.757 1.69-3.122 1.367-.269 1.71-3.455 2.13-1.277-.487-1.721 2.578-.545 2.95-.723 1.638 1.139 1.647-.424 1.206-1.556 1.269.785.439-1.24 2.991.718 2.088.852.874-1.302 2.716-.746 2.122-1.175 1.322.522 1.927-2.807 1.264-.19-.383-2.71-2.222.166.613-1.706 3.361-.455 3.668.558 2.609-.888 1.362-3.577 1.954-.193-.587-2.857-.022-3.631 1.318-2.55.353-2.164 3.594-7.012 3.322-6.652 2.221-5.053 1.166-.082 1.683-2.776.456-3.397.252-7.282-.033-7.734 1.185-.93.353-4.009 4.289-2.757 5.194-2.547 7.517-2.068 6.874-1.709 6.156-1.826 4.313.151 3.595-1.717 2.75-.142 4.234-2.197 4.753-.505 5.225.014 5.12-.223.437.922 3.112-1.327 2.523-1.597 2.262.33 5.397-1.074 4.158-.723-.044-1.398-3.663.517.285-1.63 6.078-.789-.238 2.51 4.747-.887 3.004.954-.173-3.083 2.736 1.24 2.839-.128 4.469-1.784 1.486-1.444 1.717-.043 1.515-1.069M167.795 950.657l-.337-1.917.534-.621-1.15-1.028-.478.047-.312-1.395-1.723-.884-1.938-.157-2.43-.736-1.809.2-1.686-1.475.355-.241-1.772-1.426-1.074-1.643-.362-1.806-.58-1.856M83.085 896.08l-3.423-1.632-.928-1.034 3.311-3.627 4.545 2.882.506 1.161-2.523.194-1.488 2.056M424.065 39.295l-.865.577-.956-.264-2.523-1.114-2.214-2.287-1.261-.352-.157-2.064-2.596-.92.745-1.415-2.03-1.035-1.594-2.813 2.641-1.283 1.78 2.038 2.225.712 1.415.88 1.2-.514 1.865.47.185 1.44 1.77-.027 3.184-2.355.788 1.239-.372 1.404 2.52 2.05 2.144.593 2.415 1.47 2.301.07 1.582 2.326-.972 1.215-3.532-2.277-3.02-1.755-1.974.325 1.123 2.782-.745 1.702 2.387 1.79-1.446.848-2.526-1.236-3.487-2.22M450.167 44.275l-2.398-1.535-1.6-1.914-.125-1.41 2.742 1.203 1.473-.113 1.807 1.64 1.46 2.428-.862.682-1.7-.453-.797-.528M400.71 22.908l-2.446-1.568-.489-1.48 1.917-.804 3.835 1.696 3.003 1.088-.664 2.345-1.026.468-4.13-1.745M633.886 169.24l-.151-.519-.027-.582.243-1.19.159-.064 1.176.34.927.32.623-.046.17.776-.634.497-.45 1.046-.325.121-.664-.022-.282.523-.302.07-.102-.187-.361-1.084M459.697 69.492l-2.925-1.399-2.783-1.072-2.918-2.579-.93-1.99-3.65-.825-.994-1.444-2.303-3.748-1.713-2.796-1.318-.436-2.043-1.77.754-1.086-2.903-1.33-2.405-2.992.897-.83 2.939.552 2.79.9 2.586 1.458 5.687 1.921-3.505 1.193 1.138 1.694 2.341 1.259.834 1.677-.007 2.622 2.157.662 2.994 2.382.766 1.232 4.394 2.4.93 1.21-1.672.43 3.33 1.508 3.21-.933 1.42.519.842-.68 1.814.297 1.274.93-2.204.371-1.249 1-1.837.2-2.01.038-2.733-.64-.995.095M633.559 171.748l.406-.07.767.522-.127.752.039.386-.116.14-.36-.028-.45-.888-.16-.814M634.087 174.058l.285-.148.914 1.124-.395.086-.804-1.062M635.225 177.632l-.012-.292.188-1.216.222-.003.102.169.553.768-.26.693-.016.155-.777-.274M636.529 181.298l.474-.484.428.055.195 1.037-.252.032-.485-.128-.36-.512M442.252 72.509l-1.09-.505-.284-3.876.753-2.432 1.006.1.196 2.7 1.038 1.641-1.62 2.372M438.642 79.754l-2.535-2.673 1.462-2.864.559.736-.65 2.205 1.278 2.11-.114.486M443.355 79.864l-1.83-.13-2.443-.766.17-1.124 4.258.43-.155 1.59" stroke-width="3.54268113"/><path d="m428.625 803.347-.026-.012.686 1.592-.921-.532.199 1.079-.094-.012-.934-.898.2 1.262.009.18-.628.836-.521-.532-.254-.28-.735-.772-.956-.478-.792-.734-1.049-.475-.567.892-1.077-.476-.579-.89-.617.84-.723.747-.181 1.347 1.07.179.913.68.291 1.129.882.57.053 1.315-.039 1.207-.065 1.094.154 1.196.748.747.428.998.794.835-1.114-.053-1.019.528-.683-.954-.795.863-.793 1.066-.436.95.106 1.212.633.832.765.88 1.121.166 1.008.363 1.1.21.471 1.064.86.843.604.983.64 3.34-.365-.25-.701-.863-1.05.39-1.025.472-.59-1.255-1.015.312-.869.632-.853.785-.818.94-1.053.208-.073 1.093.152 1.114-.311 1.014-1.016.411-.312-1.024-1.197.41-.975.592-1.067-.146-1.056.063-1.159.422-.962.391-1.082.34-.535-.344-.439-.378-1.221.002-.794-.831-1.002-.334-1.086-.03-.156-.373-.922-.726-1.003-.362-.957-.553-.966-.59-.957-.422-1.097.31-1.032-.127-.473-1.041-1.04-.112-1.261.315.118-1.009.379-.955.182-1.038-1.12.171-.031-1.372-.543-.89-.118-1.13-.855-.564-1.003-.281-.692-.852-.39-.968-.29-1.053-1.152.506-.384.968-.487.927.503.87-.452 1.03-.632.838-1.295 1.641-.16-.72-.61-.905-.825-.688-.29-1.015.109-1.151.549-.877-.52-.936-.91-.587-1.068-.571-.821-.632.103-1.032-.741-.778-2.164.483.745-1.189-.028-1.045-.71-.756.663-1.07-.356-.97-.105-.991.17-1.081-1.179-.16-1.013.082.71-1.13-.63-.907.294-.945.698-.79-.565-.883-.794-.594-.886-.575-.604-.83-.57-1.013-.58-.914-.728-.662-.93-.32-1.195.008-1.093.29-1.008.454-.999.5-1 .476-.904.412-1.04.26-1.07.111-1.086-.26-1.175-.182-1.083.031-1.126.405-1.033.311-1.305-.298-.892-.452-1.117-.54-.962-.629-.919-.788-1.228-.297-.822-.542-.774-.654-.268-1.11-.92-.671-.597-.805-.381-.971-.741-.847-.888-.666-.348-.962.692-.735.923.444.836 1.211.61.494-.391.907.326.966.7.767.766.793.855.494 1.085.054 1.01-.164.86-.606.712.692.323 1 .976.483.932.514 1.259.492 1.03.015 1.064-.515.778-.64.536-.888.77-.837 1.026-.501.993-.301 1.042-.37.871-.504.994-.342 2.502-.31.998-.318 1.065-.138 1.052-.321 1.451.013 1.153.336.945.362.467.934.997.216.958.315 1.154.89.57.822.735.717.762.751 1.218.255.35.964.197 1.11.503.898.342 1.011.954-.544.165-1.04.523-.866.828-.628 1.013.361.046 1.012.934.522 1.078-.366 1.025-.36.662-.88.938-.443.784-.907.127-1.07.52-.99.696-.818.688-.942.248-1.093.622-1.084.746-.745.874-.763 1.291-.41 1.03-.2-.99-.39-.814-.585-.848-.668-.653-.834-.687-.77.081-.991.545-.887.803-.625-1.1-.527-.645-.756.247-1.023-.297-.981-.273-.97-.002-.988-.032-1.103-.315-.946-1.02-.14-.964-.24-.922-.45-.323.945-.013 1.13-.356.921-1.011-.22-1.898-.77-.468-.444-.307-.995-.217-1.153-.442-.986-.415-1.012-.715-.98-.029-.996.087-.943.033-.493.422-.921.194-1.015.002-.979-.067-1.038-.086-.985-.106-1.29-.334-1.054-.2-1.036-.69-.85-1.004.217-.71-.915-.333-.948.12-.98.096-1.09-.08-1.194-.34-1.209-.646-1.189-.101-.975.854-.63.94.355.82-.63-.67-.768-.395-1.093.893-.443.841.617.895-.556.566-1.091.668-.937.896-.477.971.684.243-1.298.464-.908.632-.873.639-.855.446-1.032.657-.889.397-.906.026-1.12.945.282.685-.783 1.18.847.89.64.698-.926-.072-1.15.562-1.074 1.197-.332.723.809.335-1.232.834-.661 1.01-.475.965-.27 1.102-.011 1.017-.136.673.762.787.624.85-.723 1.027-.36 1.025-.226 1.001-.257.843-.542.922-.485.708-.877.823-.607.94-.39.655-.837.389-1.569.487-.973 1.085.351.458.952.89.605 1.017-.26.721.964.733.702.991-.658.36-1.202.913-.477 1.084-.897 1.023-.335 1.25-.47.867-.54.927-.58.896-.517.963.447 1.095-.861.81-.67 1.016.214 1.011-.506.39-.948 1.083-.595 1.036-.367 1.227-.2 1.099.016.966.403.998.543.696 1.004-.225 1.225.692 1.2.42.955 1.163.732.442.99.583 1.052.921.527 1.028-.212 1.34-.757.727.99.862.755.806.751.88.679.994.496-.634 3.14-.394.646-.741 1.116-1.22.205-1.201.616-.406 1.088.99.457-.666.955-.944.74-.95.867.176 1.141.769.76 1.166.078 1.032-.735.84-.782.938-.518.983-.418.776-.754 1.24-.946.703.106 1.047.56 1.061.305 1.15.244 1.126-.644.932-.717 1.29-.447 1.356.061 1.132.13 1.14-.395.863.006.975.183.71 1.012 1.01.493 1.122.534.84 1.055 1.24.01 1.937-1.038-.283.947-.658 1.457.262 1.183.61 1.04 1.065.646.627 1.127.69.945.733.417.496.951.012 1.181 1.02.653.774 1.114 1.021.721.335 1.353 1.381.148 1.286-.006 1.248.314 3.012.233.035 1.009-.313 1.366-.638 1.352-1.092 2.423.478 1.204.486 1.118.915 1.175.96 1.183 1.27.728 1.272.559.627 1.442 1.032.78-.337 1.263-.858.985-.803 1.224.492 1.437-.66 1.115-.549 1.769-.046 1.729.48 1.35 1.232.924 1.21.796.407 1.24-.381 1.313-.259 1.484.612 1.308.026 1.284-.35 1.256-.375 1.299.583 1.307.472 1.58.021 1.484-.174 1.642.181 1.377.087 1.351 1.705.69 1.487.304-1.161.777-1.675-.034-1.566.203-1.3.348-.874 1.039-.163 1.617-.408 1.821-.154 1.294-.567 1.787-.37 1.294-.79 1.707-.857 1.367-1.43.469-1.12-.78-1.313.38-1.361.954-1.455.92-1.325 1.199-1.325 1.244-1.13.834-.813 1.18.53 1.324-1.42.395-1.441.16-1.293.401-1.157.974-1.18.839-1.406-.401-1.463.49-1.472-.133-1.23.569-.837.977-.982.708-.906.962-1.145.695-1.217.459-1.357.12-1.262.188-1.174-.307-.693-1.088-.302-1.23-.585-1.415-.473-1.095-.527-1.297.557-1.165-.38-1.194.34-1.283-.612-1.168-.448-1.245-.318-1.12-.737-1.133-.74-.945-1.008-1.015-.88-.778-1.176-.54-.954-.685-1.013-.528-1.128.548-1.11-.782.411-1.11.122-1.114.632-.917-1.056-1.48-1.07-.977-.758-.88-.742-.9-1.185-.132-1.114-.608-1.102-.434-1.084-.279-1.063-.228-1.068-.238-1.236-.095-1.123-.946-1.1.121-.19-.136-.727-.534-.182 1.093-1.08-.37-.788-.333M153.033 935.719l-1.664-1.396-4.339.525-1.709-.665-.876 1.149-2.78 2.581-3.243.29-2.374-1.497-.825.588-2.732-2.295-4.335-.05-2.111-.112-3.188.705-1.269-1.167-.362-1.772 1.69-.865.754-.883 2.64 1.095-.05-2.678 1.493-2.028 3.31-1.032.818-4.08-1.815-.993-2.952 2.148.199 2.252-1.917 3.132-6.134-1.787-.754 2.344-2.331.37.493-3.972-2.887-2.081-1.07-4.313.855-1.53-3.78-2.833-4.98-2.987-1.017-3.909-2.97-3.2-3.662-.556-.955 1.133-6.054-4.2-5.89-4.503 5.288 1.827.213-3.594-3.528-3.565-1.588-5.565 2.75-4.523-2.554-2.22-.769-2.913-1.346-4.843.345-6.08 2.477-2.472-1.56-2.037.192-4.975.168-3.641-4.008-7.61-1.511.148-3.944-4.514-2.96-7.91-.727-2.682-1.485-5.927 1.75-10.722 2.33-2.671-1-2.723 2.645-3.275 11.033-9.233-.169-4.327 4.947-1.827 7.458 3.48 1.4-2.787-2.2-12.852 7.098-1.793-5.781-4.575 1.192-9.827 3.527-13.031 4.305-3.834 4.102 1.158-2.203-8.669 5.1-14.33 1.493-11.242 8.545-9.435 10.393-6.517 3.698-4.433 2.428-5.446 2.972-1.464 8.69 1.308 3.988.602 8.388 6.313 2.445 4.25 4.717 10.3 4.846 5.253 3.306 5.083-.26 1.274 3.32 2.412 9.196 2.197 6.812 3.239 2.856 1.277 1.401 1.824 5.67 2.276 4.56 5.463 4.152 1.669 1.095 3.496 2.259 1.397-.796 4.082.62 6.14 1.444 2.847.71 4.236 2.775 4.515 3.644 3.232 2.815.666 2.117-.433 3.72.864 1.747.852 1.88 2.35 6.148 3.708 2.71 2.714 1.593 2.026 3.254 1.334 1.944 1.87 2.123 1.183 1.924 3.054-.576 2.04.434 1.451-1.238 2.61.263 1.836-1.649 1.84 1.728.006 2.483-3.667 2.266.19 1.295-1.735 1.582.034 4.251 2.162 2.002 3.518 1.216 4.795.072 2.687 1.75-.778 2.353.143 1.466-.651 1.266 1.218.79 2.26-.698 2.37.945.721 2.882-.871.62-1.644-1.14-1.048 1.437-.908 1.252 1.856 2.135 1.397 2.988-.233 1.642.2.384 1.93 1.798 1.28 2.259.11 1.684-2.356.226-1.97 2.676.198 2.024 1.917 3.535.517 1.453 1.398 1.462.43 2.743-1.207 1.356-1.477.012.743.315 1.507.864.65 1.354 1.253 2.604-.38.238.661-.388 2.045-1.332 2.39-.892 2.504" stroke-width="3.54268113"/><path d="m393.374 795.165-.044-1.057.164-1.023-1.163-.257-.99-.189 1.105-.57 1.414.063 1.253.06-.308.94.273.954-.833.684-.107.017-.764.378M385.841 203.664l-.663-3.227-.972-4.425-.577 2.462-2.215.503-.208-1.962-2.97.74-.343 1.83-3.348.976-1.644-3.355-1.15 2.165-2.097-1.672-2.905-1.62-1.906-4.38 1.105-1.199 2.417-.738 2.079 3.683 1.135-.119.387-5.891 1.755-1.093-.506 3.334 3.301-.99 2.727-2.315 5.382-3.362 1.163.938-.771 2.473 1.845.333-.603 3.792 1.823 7.789.191 3.15-.91 2.78-1.134.703-.388-1.303M551.84 273.885l1.588 1.115.198 1.527 1.139-1.406 1.984-1.299.553-.755 1.048-.456.79.113.043 2.446 2.826 3.035.543 1.076 2.267 1.652 1.979 1.681 1.317.326-1.652 2.195 2.5 3.378-.985.702 1.262 1.273-.31 1.886 1.84.412 2.723 1.708 1.131-.057.605-1.714 4.093.11.145 1.464 2.347.668 1.216-.683 1.436 2.892 3.246.657.605 2.598 2.895.675 2.525 2.776-2.046.51-4.26.38-6.413.3-3.831-1.16-1.556-1.444-1.304-.19-.46-2.36-3.404-2.755-2.823-2.459-2.244-2.413-3.93-.921.277 1.544 2.289.745 3.008 3.44-3.453.964.709 3.466 4.263 3.917 1.845-.955.292 3.292-.088 2.266-1.975-.464-.838 2.084.965 2.024-1.564 4.13-.637 4.766 3.424 6.475 3.59 8.343 1.451-2.205 1.977-.007 1.25-1.255-.901-1.557.866-1.642 3.841-1.187 2.338.79 2.236 2.342 3.22 1.398 4.104 2.53 2.862 4.464 1.647 1.467 2.049 4.093 1.916 4.204.976 2.12.191 3.536-.665 1.284-2.02.497.388 3.791.695.85-.625.65.353 1.416.516 1.165 1.941 1.154-.099 1.42.226.666.263 1.28-.493 1.63.082 1.356 1.074.865.117.441 1-.503 1.968-.352 4.405.342 2.124.651 3.172 2.12.932 1.89-.915 2.412-.189 2.61-1.288 2.166-1.627-.87-1.663-1.918-3.426-1.151.743-1.884-3.287-.26-1.244.608.287.615-.254.755-.53-.306-.642.333-.826.21-.666-1.418.073-.695-.593-.187-.96-1.552-.507-.19-1.154.905-1.377.364-1.467 3.189-.069 2.317-1.13 2.537-.203-1.94-1.244-.44-.308-2.808-2.045-.137-.561 2.254-.264 3.43.403 2.461-1.575 1.779.119 1.903 2.397.623 1.814-1.06 1.06.946 2.068-.768.324-3.616 2.433-.81 1.164-1.169 1.534.804-1.801 3.31.426 2.078-.627 2.955.626 2.567 3.317-.775 3.065 1.507 3.383.913 3.223.392 1.797 1.788-.627 1.982 1.807.782 2.011-.518 1.709 2.322 1.426 2.53-1.024 1.455.98 4.376 1.234 5.244.506 5.279-1.457 5.511-1.89 5.277-2.849 2.545-.786 2.488-1.616-.324-.595 2.535-3.005 4.012-2.75 2.274.674 3.025.202.807-1.529 1.088-2.007-1.83.02-1.57-4.377 1.133-1.085 1.216-2.515 4.59-1.044 4.106.344 2.48 3.839 2.304 4.835 2.925 3.829.72 3.216 1.785 4.406 5.668 2.195 6.444-2.02 3.565-3.233 3.862-1.89 4.047-3.441 4.83-2.016-1.928.24-2.746-3.255-1.185-3.068.399-1.957-1.38-2.821-3.006-3.469-.615-2.792.921-.32-2.757-2.838.888.808 3.715-.446 5.374-.33 3.26.827 2.404 2.244-.427 2.158 2.822 1.333 2.888 2.438 1.584 2.265-.078 2.307 1.447.918.15 2.685 1.723 2.132 2.147.77 2.495-.049 1.814.638 1.237.724 2.22 1.576.808 2.19 3.186.159 1.354-2.777.738-4.18-2.267-5.026-2.254-.77-1.829-2.586-2.09-1.068-2.93-1.688-1.718-.13-2.689-1.1-1.345-1.682-1.062-.97-1.608-2.268-1.56-2.017-1.267-.127 2.134-1.052-1.763-.097-2.203.237-3.473-.927-2.413.365-2.81-1.609-1.671-.703-3.642-1.758-1.325-2.106-3.557-1.727-3.84-2.084-2.201-1.518 2.147-2.809 3.174-1.763.17-2.043-.243.01-4.08-1.396-2.686-3.224-2.848.042-1.177-1.76.083-2.66-1.866-1.216-1.317-.576-1.45-.915-1.26-1.608-1.375-2.506.569.567 1.127-.42 1.842-1.306-.29-.258.63-.846-.122-1.109.003-.126 1.152-1.847.408-3.186 1.364.636 2.135-1.09 2.022-3.545 2.732-2.456 3.956-1.77 2.168-2.463 2.317.193 1.327-1.284.91-2.363 1.375-1.277.32-.56 2.293 1.03 3.673.421 2.381-.91 2.88.465 4.938-1.479.275-1.124 2.328.957.888-2.57 1.028-.834 2.042-1.104.909-2.894-2.519-1.588-3.924-1.287-2.797-1.08-1.272-1.683-2.61-.958-3.47-.615-1.718-2.783-3.641-1.562-5.3-1.1-3.48-.294-3.35-.744-2.538-3.618 1.979-1.847-.186-3.595-3.078 1.154-1.078-.83-1.019-3.122-2.115-1.883-.574-.862-1.914-2.034-1.967-4.533.724-4.018.184-3.476.456-4.662-.778-2.692-.63-2.782-.381-.993-3.36-1.16-.508-1.89.441-2.516 1.245-2.97-1.027-2.373-2.228-2.31-.918-1.455-2.72-1.51-3.812-1.331.344-1.45-1.05-.998 1.001-1.422-.27.391 1.273-.276.613.6 2.163.76 2.47 1.162.726.35 1.003 1.603 1.28.074 1.147-.309.901.256.946.67.817.279.922.335.696-.047-2.011.758-1.402.696-.256.702.904-.043 1.61-.631 1.586.422 1.074.454-.111.056.756 1.988-.337 2.074.159 1.512.136 1.775-1.788 1.907-1.696 1.605-1.642.739-.912.299.243-.257 1.122-.333.488.29 2.16 1.084 1.883 1.381 1.008 1.834.374 1.482.503 1.131 1.561.681.902.905.341-.002.607-.917 1.623-.405.764-1.073.87-.959 1.86-1.16-.148-.539.644-.423 1.375.303 1.82-.246.331-1.19-.019-1.628.997-.271 1.321-.603.566-1.62-.048-1.032.666-.008 1.099-1.282.729-1.439-.29-1.776.875-1.217.12-1.923.676-.548 1.194-.092.927-2.673 1.064-4.295 1.116-2.469 1.834-1.184.101-.797-.198-1.62 1.07-1.74.45-2.27.034-.692.122-.627.7-.72.166-.456.682-1.34-.13-.888.33-1.88-.24-.617-1.663.166-1.517-.396-.848-.402-2.095-.704-1.197.552-.1-.192-1.295.365-.516-.034-1.227-.263-1.218-.75-.904-.121-1.134-1.309-1.116-1.232-2.482-.547-2.367-1.662-2.126-1.146-.588-1.478-2.904-.08-2.018.314-1.678-1.12-3.361-1.086-1.284-1.343-.791-.63-1.777.239-.63-.504-1.607-.665-.764-.675-2.319-1.188-2.611-.964-2.238-1.293-.226.706-1.529.31-1 .544-1.105-.003-.439-.95 1.033-.982 2.104-.998 1.392-.705.397-.69-1.116-.917-1.548-.96-4.625-.323.21.409 3.352 1.01 3.289 1.146 4.948.704 1.763.58 1.795 1.891 3.6-.607.428-.19 1.903 2.775 3.033.395.652.517 2.937-.657.451.048 3.01.628 3.54.969.812 1.39 1.204 1.282 3.444.533 2.67 1.394 1.499 3.542 2.934 1.414 1.7 1.381 1.705.798 1.009 1.295.914.6.896-.147 1.149-1.598.583 1.138.822.866.556.48 1.171 1.183 1.216 1.357.07 2.603-.595 2.974-.204 2.42-.759 1.35-.129.984-.463 1.54-.041.863-.024 1.255-.363 1.436-.228 1.301-.894 1.018.024.038.755-.294 1.576-.031 1.433-.597.967-.843 2.924-1.388 3.007-1.773 3.434-2.442 3.935-2.41 2.997-3.312 3.652-2.799 2.154-4.176 2.644-2.612 2.047-3.075 3.296-.653 1.446-.632.647-1.95 1.09-.692 1.15-1.042.2-.397 1.946-.891 1.117-.536 1.843-1.113.92-1.25 3.423.184 1.566 1.783.983.092.717-.734 1.677.172.836-.157 1.32.99 1.71 1.183 2.688 1.01.581.463 1.221-.055 2.734.387 2.396.211 4.272.503 1.326-.737 1.975-.967 1.93-1.62 1.754-2.367 1.139-2.903 1.472-2.799 3.113-.975.565-1.69 2.077-1.026.715-.07 1.977 1.384 1.986.629 1.57.095.817.44-.17.133 2.69-.31 1.304.631.421-.283 1.167-.966 1.06-1.981 1.108-2.853 1.777-.983 1.129.338 1.13.652.116-.056 1.463-.39 2.06-.026 2.302-.478 1.306-1.468 1.582-.417.455-.826 1.52-.469 1.493-1.055 2.145-2.2 3.218-1.358 1.904-1.514 1.542-2.186 1.5-1.132.37-.14.812-1.46-.119-1.014.754-2.572.02-1.298.648-.972.08-2.068 1.65-1.812.927-1.109 1.4-.999.347-1.222-.699-.772.169-1.325-.93.004.408-.516-.642-.455-1.6-1.283-1.61.603-.716-.663-2.084-2.285-2.13-1.88-1.992-.007-.006-2.8-3.1-2.463-1.57-1.59-1.76-1.374-2.584-1.237-1.872-2.15-4.154-1.033-3.437-.783-1.49-1.39-.91-2.088-2.032-2.442-3.149-1.126-1.706-3.13-2.307-.8-2.283-.779-1.848-.278-2.807.346-3.08-.156-1.367.35-3.031.451-1.44 1.336-2.412.71-1.589-.12-2.386-.493-1.756-1.142-.961-1.187-1.781-1.117-1.786.057-.699.77-1.44-1.477-2.969-1.001-2.08-1.957-1.835.22-.688-.61-.96-1.24-2.38-3.25-3.207-3.981-3.018-2.67-2.603-2.577-3.419-.009-1.2.673-1.225.639-2.688.518-2.722-.719-.494.993-4.139.393-2.89-1.526-2.356-1.709-.567-.808-1.637-.973-.508.017-1.034-3.886 1.465-1.456-.151-1.446.912-3.104.044-2.199-2.364-1.394-2.828-2.9-2.586-3.066.106-3.656.079-3.465.588-3.407 1.031-6.708 2.897-2.364 1.685-3.945 1.622-4.193-.942-2.11.236-3.372-.615-3.064.35-5.69 1.467-3.278 1.85-4.74 2.54-1.007.014-1.336.251-5.774-1.651-5.53-3.37-5.202-2.375-4.387-3.196-1.64-.229-4.624-1.856-3.61-2.908-1.355-2.172-1.23-4.642-3.135-3.64-2.741-2.447-1.77-.778-1.773-1.27-.918-3.033-1.068-1.51-2.071-1.104-3.884-2.946-3.088-.437-1.734-2.1.037-1.157-2.298-1.628-.472-1.662-1.091-6.046 1.185-3.45-2.702-6.496-3.674-3.35 3.71-1.138 4.611-5.11 2.542-3.748.203-4.386 2.99-3.382 2.848-7.027 1.577-7.797" stroke-width="3.54268113"/><path d="m200.835 436.991.473-4.08 2.15-3.475-.359-4.297-2.284-4.888 1.794-3.022 2.028-3.258 3.61-.631 4.108-2.524.894-2.57 4.946-3.501 5.878-2.069 2.588.217 3.828-2.63 2.307-3.115 4.473-2.258 4.895.399 7.23-3.246 4.024-.211 4.643 2.656 6.032-.761 3.114.348 6.46-1.254 3.62-6.39 4.653-2.487 2.471-1.78 4.76-.722 5.026 1.258 3.885.58 5.712-2.005 3.076-1.373 2.17 2.063.403 3.183 3.083 2.234 2.438 3.411 1.274 1.098 4.44.302 3.637 1.853 2.939-.057 3.53 1.016 5.166 2.871 4.735 2.925 1.035 1.442 3.443.376 2.882 1.845.596 1.469 1.956.938 3.7.429 1.601 1.492-1.052 1.621 2.937.081-.172.736-2.24.862-.88 1.524.484 1.343-1.915 2.704-2.74.729-.425 2.138 1.442.807-.087 1.98.831 1.062 2.812 2.753 1.331.257 2.119 1.624 3.113 3.103.127 3.498 2.307 1.642 3.485 2.866 2.438 2.682 1.66-.371 1.844-1.025.22-2.687 1.417-1.25 2.483-.79 1.994.227 3.367 1.887.439 1.699.983.336.673.803 2.512 1.187.332 1.216 3.517.985 2.29 1.52 2.348 1.6 1.081.787 2.242-.44 1.28-.588 2.317.321 1.72.817.347 1.636.817-.83 1.876 1.166 1.938.604 1.401-.47.94-.805-.136-.203.957-1.221.988-2.09.516-.66.074-.015 1.402-2.174 1.663-1.771.069-.09.29-2.27.859-1.054-.55-1.52 1.149-.871-1.483-.103-1.786-1.163-2.052 1.256-3.69-.638-1.478-2.122-2.532-.858-.921 1.062-1.77-.152-1.827-2.319-2.648-.811-.394-3.471-1.133-2.291 2.006-1.902-.929-1.985 3.634-1.864 3.519 1.18 1.754-1.89 4.076 1.877 3.267-1 2.789.003 3.575 1.038 3.181 3.098 2.815 1.92 2.626.178 1.794.687 2.86-.916.582-1.14-.094-2.05-.963-1.325-1.074-.604-.545-1.057-1.993-3.09-2.023-1.729-1.247-2.197 1.6-.012 2.354-1.888-.761-1.453 3.21-.306.128-.633-1.869-.056-1.615-.248-1.586.51-1.881-.444-2.05.493-.482 1.813.755 1.012 2.103.48-.71.895-2.374-.209-3.323.74-.945-.974.92-1.192-1.917-1.632.558-.419 2.264-.259-.343-.861-2.817-1.88.279-1.118-1.966-.374-1.375 1.28-2.425 1.494-.255.763-1.248.217-.513-.528-2.015 3.26-1.59.76-1.633 1.773.036 1.953-.18 1.23 1.57 1.68-.671.569-2.71-.84-1.311.543-2.515.859-.165-1.67.28-.6-1.34-.647-1.062-.775-3.08-.404.867 2.363-1.377-.005-1.29-.55-.54-2.085-.727.468-.275 2.03.566 1.92-1.17.289.74 1.947.826 1.357-.641 1.73-1.912-1.699.09 1.842-1.678-.298-.133 3.075-1.666-.605-1.498-2.163.109-2.854.46-2.23-.311-1.83-.42-2.31.249-.945-.3-.405.275-.694-.798-1.658.522-1.55 1.244-1.97.792-.777-.133-.671-.348-.48-.106-1.314-.639-1.117-1.46-2.273-.648-1.814-1.461-2.08-.438-3.318.57.054-.158-1.864.615-1.016-1.021-1.357-1.497.832.059-1.403.75-.98.107.003.639.053-1.322-1.567-2.405-.168-.934 1.533-.854.654-.364 1.995 1.003 2.87-.506 3.198.995 3.982 1.787 1.03.164.992-.989.237 1.435 2.266 1.194 1.848 1.16 2.64-.048.695-.997.875-.574-2.106-1.772-1.587-2.068 1.46 1.128 2.057-1.118 1.474-1.113-.337-2.693 2.017-1.167-.288.507-.961 1.384-1.423.882-.39.018-2.313.13-1.968-.77-.941.067-1.737-1.181-1.45-.263-1.849-1.597-1.266-.918-2.545-.753-3.385-.297-2.814 1.483-3.46-.807-1.149-.973-2.317-1.292-.376-2.336.385-1.072-.505-3.353.077-3.62-4.487-4.048-1.902-1.906 1.578-1.465 1.879-4.031.102-3.62-2.09-1.186.859-3.104.389-3.35 1.753-.662 2.762-2.806.17-2.472 1.7-2.643-1.089-4.28.966-3.648-3.114-2.647-2.55-2.97-.43-2.39.314-1.154-1.663.103-2.264 1.244-2.847-2.04-3.282-2.1-.31-.937-2.11-1.871-1.236 3.505-2.199 2.188-2.339-.782-1.713.934-1.984 2.867-1.806 2.422.13 1.792-1.007 2.882-1.152 1.644-1.3 1.011-1.63 1.264-1.08 2.969-1.801.954-2.37 5.571 2.216 1.668 3.874 2.679 3.574 1.546 3.222 1.883 1.936 3.246 4 2.997-.506 6.75-5.044 1.566-5.058.435-2.947-1.169-4.484 2.41-1.94 2.744 2.464 1.799 4.32 3.217-3.385.061 3.018 6.1 2.825 2.947-1.404 1.93 1.161 1.797.996 1.575.259 5.472-2.009 3.116 1.277 1.118 1.409.847-.202 1.347 1.177-.305.827 2.259-.171.638-1.258 1.404-1.436.897-1.925 2.65-2.428.922-.38 1.147-.277 1.266 1.097 1.146-.154 1.717.435-1.329 1.16-1.197.362-.546.828.338 1.105-1.259.57-.129-.674-2.782.709-.85 1.57-.942.97.88 2.028-.878.87 1.952.961 1.473.083.772 2.525.003 1.447 1.693.132 3.364.767 2.604.637 1.17 1.607-.367.73 1.463 1.13 1.196-.911 2.712.637 1.253-2.445 1.475-1.934 1.884-1.129 1.953.056-.231 2.736 1.19.72 1.614-1.844 1.196-1.44-.729-.012-.23-1.523.93-1.57 2.175.443 1.918.735 1.168 1.36 1.434.775 2.39-.559-.619-2.08-2.474-1.28-2.906-.578-2.48-.95.294-1.932-.564-1.75 2.205-2.242 1.236-2.672 1.697-.986 2.23-.732 4.51-.77 1.084.006.671-1.127-.507-2.233-2.25-.7-2.374.846-1.083 1.6-3.323.489-3.903.178-3.886 2.59-.697 2.442-.015 2.358-3.523 1.808-1.833-.576-4.137 3.735-2.82 1.683-1.49-1.738-2.588 1.273-1.76-1.397 1.777-2.758 1.614-3.839 2.54-4.297.76-2.261-5.281-.051-2.186-1.363-.166-3.1 2.633-2.758 6.211-5.026 2.637-.042 4.657 1.598 4.455.16 5.099-.938 6.66-1.73 3.08-.132 4.933-.513 2.602.637 1.157 1.267 2.818-.907 1.31 1.243 1.762.592 1.274 3.567-1.527-.057-.103 2.197 1.463-.3.527 2.428 2.19 2.017 2.248 4.764.24 1.617-.675 1.83-1.791.92-2.1-.069-3.729-4.41-.945-.096.668 2.864-.574 1.263-1.328 2.749 1.091 1.556.592 1.134.759-1.233-.148-1.483 1.207-.67 2.026 2.919 1.255-.256.059-2.307 3.66-1.608.946.541.684 1.33 1.299-1.661-.309-1.95 1.101-1.484-.114-1.93 2.509 1.87.099 1.73-1.438-.089-.5 1.532.549 1.218 1.866-.092.77-1.689 6.676-2.302.735.286-1.34 1.5 1.259.57.887-.859 1.942.221 1.666-.968.987 1.815 1.328-1.755-.897-1.72.597-.877 2.82 1.047 1.338.92 3.716 3.154.62-1.487-1.08-1.43-.046-.59-1.19-.25.304-1.33-.523-2.177-.03-.896 1.604-2.558.476-2.56.587-.575 2.22.585.32 1.528-.62 2.325.633.835.484 1.906.168 3.808 1.294 1.566-.223 1.888-1.707 4.13 1.31.28.33-1.037 1.112-.85.107-1.394.726-1.43-.815-1.474.217-1.875-1.106-.085-.417-1.504.41-2.857-1.426-2.117 1.328-2.043-.444-1.939.398-.115.646 1.468.037 2.703 1.02.36-.7-1.917 1.238-1.307 1.693-.475 1.888 1.19-1.26-2.072-.723-2.865 1.186-.854 1.824-.37 1.482-.841-1.028-1.187.237-1.99.747-.338.79-1.76 1.522-1.036-.103-.783 1.466-.98.768.304.602-1.995 1.048-.561-.47-1.108-.12-1.31.553-1.723 1.35.136-.278 1.036 1.38-.483.96.98.05-.887 1.447-1.152 1.975.02 1.095.377.867 1.146-.008 1.124-.41 2.396.096.982.96-.308 1.3-.226.153-.845 1.492 1.01-.245-.752.571-1.173 2.017-1.5 1.088.704 2.426-2.326-1.635-1.301 1.353-1.037.686-1.029 1.901-.283 1.683.61.71 1.026 2.4.206 1.668-.649-2.095-2.137 1.735-.648-.003-1.65 1.464-1.18-.451-.89.89-1.167-2.585-.372-.71-1.437 3.808-6.607 1.736-.375 2.464-1.902-.075-3.646.577-1.742 1.166-.699 1.994.198.818-1.15-.545-1.289-.095-1.686.456-1.826-.403-1.816 2.204-1.916-1.026-1.1-1.63 1.007-1.258-.258.277-3.077-.557-1.888.605-2.973.773-1.638M476.068 682.667l.898 1.305 1.631.983-.132.561-.988 1.095-2.871-.817.469-1.519.67-1.071.323-.537M534.399 520.157l-.204 3.143-1.191.94-2.544.856-1.564-2.26-.826-4.19.922-4.863 2.159 1.45 1.552 1.955 1.696 2.969M615.337 541.067l1.063 2.782 1.73 2.153 3.157.015 2.4 2.474-.58 5.498.272 6.798-4.842.315-3.775-3.398-5.549-3.088-1.909-2.351-3.285-3.034-2.208-2.784-3.473-5.112-3.676-2.78-1.47-3.063-1.724-2.69-3.58-1.842-2.287-2.789-2.934-1.59-4.162-3.276-.562-1.688 2.22-.205 5.469-.211 3.696 2.922 3.177 1.978 2.255 1.188 4.14 3.422 3.86-.543 3.654 2.107 2.772 2.918 3.313 1.362-1.163 3.498 2.513 1.102 1.488-.088M635.695 562.742l.733 1.646 9.309-.023.956-2.119 9.63 1.742 2.159 3.287 8.208.444 7.181 2.896-6.386 2.542-6.173-1.96-4.844.35-5.43-.199-4.785-.769-5.78-1.716-3.552-.373-1.962.647-8.489-1.721-.833-1.925-4.09-.214 2.88-4.349 5.481-.028 3.824 1.592 1.963.25M611.447 463.858l-3.024.279-1.474-2.695.731-2.194 2.766-2.629 1.743-.877 1.343.823-.542 2.128.299 2.225-1.842 2.94M651.605 506.93l1.104-2.279 2.733-3.858 2.018-4.426.602-4.314 1.7-.838 3.244 1.088 1.11 1.785 3.484-.182 4.383-.513.56 1.926-2.932 1.698 1.862 1.834-2.676 3.102-.866 5.3 5.327 3.075.035 2.565 7.407 2.438-5.804 2.84-.505 4.024 1.722 4.58-3.986 5.02 1.223 5.257-.249 8.678-1.188-1.761-5.62 3.568-2.666-2.812-3.727.39-2.821-1.156-5.61 2.788-2.166-2.062-3.115.774-3.995.058-1.732-6.08-2.503-.853-2.858-3.413-1.376-3.702-.363-4.105 1.883-3.454 3.551.683 3.19-1.697-.14-3.941 1.625-1.364 4.985-2.58 1.998-4.541 1.152-3.54M663.604 750.295l-6.87-3.773-4.29-3.588-3.757 1.055-3.546-.293-2.779-3.951-2.463-2.553-1.845-4.625-2.88-2.658-2.446-2.667-4.473-.346-.7-1.317-2.886-.868-2.932-.626-2.056-2.822-2.058-2.388-.675-6.066-.969-2.518 2.323-2.182 2.199 1.1 1.485-.348 1.314-1.584 3.191-2.49 1.916-2.912 1.831-6.183 1.445-3.102 2.218-2.494.628-4.277.89-1.474-.556-3.206 1.962-4.155-.122-5.451.614-2.48.711 3.31 1.151-5.537 1.448 2.75.206 2.756 1.448-2.653-.076-5.327.401-1.867-.31-2.112 2.003-2.77 1.618-.826 1.913-2.366.857-3.397 3.76-3.07-1.38 4.371 3.811-2.899 5.119-.134 3.674-1.43 5.179-.531 2.82.53 1.316 1.396 5.639-.544 4.024.703 1.503-1.098 1.911.01 3.513 1.493 7.805.55 4.966-1.901 3.186-3.416 5.555-2.586 1.247-3.056 1.334-4.272 7.044-5.678 1.76 7.988 3.902-.848-2.023-4.708 3.426-3.642 3.365 2.606 2.223-6.572 5.404-3.783 2.561-3.395 4.74-1.177.348-2.641 4.04 1.408.322-2.435 4.288-1.201 4.805-1.193 7.383 5.085 5.549 6.883 6.991.593 7.358 1.636-2.183-6.799 5.63-9.717 5.266-3.493-2.108-2.942 4.479-7.547 6.714-5.52 6.711.346 10.481-4.839-1.985-6.772-10.334-1.704 6.04-3.667 9.433.601 8.923 3.364 13.335-.202 3.729-3.048 11.43 1.24 7.407-8.605 6.784-1.443 2.214-5.133 12.247 4.418-.097 12.222-4.113 10.623-6.282 2.834 4.596 7.163-3.36 11.604-5.474 11.31 2.1 5.75 18.499 11.192 19.89 7.221 15.078 9.55 23.542 20.533 10.503.432 21.123 12.147 5.364 15.547 49.422 30.067 55.206-21.62 8.619-52.261-2.02-41.589-18.718-37.214-25.428-43.772-23.278-7.635-9.01-9.414-21.318-7.901-19.822-16.277-2.93-7.946-10.684-.323-10.163-11.937-10.718-9.59-5.945-3.007-4.99-10.524 12.324-2.642 15.12 2.597 4.582-5.348 11.26 1.397 16.367-7.603 18.238-.197 12.6 2.397 31.387-13.441-17.649-23.134 12.989-15.355 8-22.19 17.998-4.31 26.557-29.612 11.65-22.063-5.47-11.57 8.44-39.53-306.803 907.114-8.9-30.698-35.677-20.048-19.398-13.849-16.428-10.589 2.586-5.99-13.688-12.858-11.236-20.399-6.099 5.53-8.248-6.48-3.43 3.39-6.397-16.878-12.265-6.61-7.416-3.71-12.267-7.889-6.086-8.699-2.553-6.41-1.98-7.05-8.15-6.934-3.511-8.828-.792-5.026-2.376-9.104-3.11-4.752-2.398-6.68-2.097-8.972 1.684-7.128-2.532-7.104-1.2-4.873-3.77-6.761-1.235-4.806-3.474-5.346-3.65-4.19-2.102-1.334.115-4.424 3.848-5.695.478-6.46-1.082-3.903-1.032-4.7 5.257-2.763 2.856-2.73 3.267 2.637.103-3.731-3.066-7.122 3.797-4.136 2.281-2.884 1.577-3.192 3.764-5.21 5.728-2.923 6.402.031 4.53-.79 4.044-2.872 1.872-6.716 4.055 2.81 6.969-1.189-6.057-4.154-1.352-6.553 4.831 4 5.296 1.371 4.543 3.295 7.384-.342-8.264-6.883-3.268-4.868-7.28-2.68 3.345-5.916 4.8-.164 6.136-5.585 2.832-4.687 2.43 1.11 3.446-11.461-1.29-5.545 1.857-8.763-6.155-12.495-6.91-7.17-6.108-5.688-2.73-5.78M689.241 569.322l3.85-.912 1.872 2.582-7.247 1.905-4.23 1.126-3.267.144 1.837-3.63 3.336-.322 1.447-2.336 2.402 1.443M660.188 478.394l-3.25 6.754.465-3.88 1.476-4.072.723-4.104-.404-5.067 2.675 2.695-1.223 3.732-.462 3.942M701.513 506.408l6.16-3.425 3.187-6.913 1.647.647-1.416 7.912-3.672 3.224-5.864 1.5-8.941 4.317-4.363 2.682.791 4.34 6.786 3.071 2.09-3.714 9.827-6.457.714 2.871-2.9.265-1.116 4.439-4.282 4.223 8.426 5.63-.413 2.514 8.174 5.525 1.267 4.406-3.053 2.983-3.239-1.635 1.611-6.265-5.613 4.349-2.07-1.32.123-2.657-5.512-2.283-1.377-5.935-3.356 3.026 2.502 6.778 2.44 8.763-3.775 1.768-3.024-1.25.472-5.956-2.391-5.46-2.457.613-2.832-3.414 1.253-4.34-.606-4.63-.187-9.066.255-2.6 2.814-5.748 4.802-.31 7.118-2.468M703.555 580.873l-9.184-4.226 6.08-1.757 3.737 1.803 2.584 1.947-.296 1.935-2.921.298M650.84 437.249l.636 1.722 2.997 1.383 1.458 3.39-.986 2.64 1.642 3.12 2.888 2.155 2.096-1.03 1.165-1.611 5.823-1.596 1.284 2.184 1.85-.101 1.016 1.956-4.191.49-2.792-.826.145 2.016-3.873-.392-2.743 2.91-2.302.486-.894-1.582.398-1.678-1.607-.043.493 1.574-3.129-.765-1.59-1.126-2.517-3.13 2.125.117-3.646-5.383-1.323-3.671 1.81-1.493 2.593-.666.215-1.603.958.553M709.702 568.159l4.61-1.197 6.018-3.698-.395 4.256-10.492 3.5-9.173.146-.288-2.436 5.142-2.061 4.578 1.49M633.02 420.747l2.569 5.855.943 3.355-3.517-1.198-2.126-1.84-.93-4.058.068-3.876 1.868-.266 1.125 2.028M660.668 459.767l-3.772-1.464 3.093-2.046 2.18.385 1.357 3.85-2.858-.725M668.518 461.374l-1.877-1.366 3.068-.481 2.345-1.792 1.134 1.627-.533 2.93-1.592 2.915-1.41-1.7-1.135-2.133M694.593 459.993l2.692 2.4 2.184 2.17 1.663 5.16-5.032-3.21-.346 3.733 3.84 2.21.244 3.07-7.168 1.104-3.443-2.343-.131-2.984-4.118-.103-.11 2.687-2.121 1.19-1.632 4.467-1.512-.818-.648-4.656 1.827-2.947 1.143-3.137 2.802.821 2.293-3.452-.736-2.33 2.751-2.353-2.74-2.88 4.732-.784 2.033 1.73 1.533 1.255M674.606 465.397l.18-1.805-1.357-2.712 1.91-1.808 1.362 3.06-.068-5.87 2.517 3.93-.407 2.349.627 3.427-.401 2.102-4.419-1.04.056-1.633M744.396 561.07l5.736-1.69 2.367-1.749 3.531.19-2.564 3.178-8.027 5.738-6.504 3.676-4.44 6.915-6.66 2.518-1.035-.86.416-2.753 2.72-5.242 7.3-4.488.573-2.086 6.587-3.347M678.92 448.478l4.613 3.205-3.69 1.446 1.133 1.192 2.878 1.58-1.11 2.355-2.355-2.57-1.29.724-2.432-1.803 2.406-1.492-1.229-1.36-4.528-.93 3.452-2.829 2.152.482M739.27 523.288l-5.335.897-2.61-2.297 6.65-3.536 2.804 1.41-1.508 3.526M724.355 483.227l2.479 2.638 3.562-1.854 2.157 1.86 3.216 5.158-3.38 1.48 1.44 4.139 4.528 1.57-1.257 1.823-4.836-2.278-6.45-6.226-1.858-5.113.399-3.197M752.957 507.23l8.934-2.823 6.185 3.79-8.02.87-6.299 2.942-3.724 2.7-4.976 2.331-.38-4.633 8.28-5.176M622.353 342.862l2.276 3.36 3.211 1.165 2.134 1.9 1.749.16 1.708 2.218.119 3.946-1.85 4.634 1.732 5.41-2.078 1.114-2.327-1.093-1.714 4.676-.327 3.72-1.717 2.868 3.698-1.124 3.973 4.847.169 2.462-1.96.455-2.213-2.371-1.88.98-2.617-.367.649-2.842-.98-2.424.019-3.33-.93-2.935 1.814-5.264 1.975-2.292-4.081-5.172 2.193-.93-1.452-4.9-.606-1.86-3.097-2.986-3.523-.947-1.499-1.694.357-2.59 4.626.257 2.449.95" stroke-width="3.54268113"/><path d="m823.791 426.516 13.405-14.52 11.122-18.166 6.942-6.773 6.495-5.781 7.165-1.28 7.54-20.414 6.315-3.563 2.2 11.698 8.737-3.453 7.505-13.309 12.827-12.277-2.767-7.749 6.262-1.432-1.564-11.243 4.134 2.97-.737-16.32 4.396-.501 5.29 8.224-2.035 5.006 3.288 12.918 2.51 16.286-7.716 14.66-7.767 10.129-13.223 8.59-7.695 19.093 2.264 13.41 2.977 10.58 12.555.886 2.166 15.09-6.255 8.448-8.325 16.272-19.3 5.94L871 481.085l1.123 5.645-12.424 14.477-4.36-12.472 2.638-9.26-13.605-6.142-11.768-1.673-21.547 10.173-6.795 5.492-17.177 3.17.78 5.35-2.365 2.935-3.794-1.416-2.479-3.119-8.054.743 5.378-8.4 4.885-4.104-2.155-1.232-9.683 8.333-5.713-1.78-6.642 3.29-4.993-1.088 7.102-8.083 1.378-4.62 11.783-6.639 3.167 1.246 11.857 8.461 11.054-2.976-2.198-12.85 2.17-12.048 4.737-6.958 7.197-5.291 6.707-4.733 6.587-9M628.603 374.332l-.949-2.415 1.158-1.208-.678-1.73 1.656-1.476 1.214.237 1.057 2.439-1.555.499-.04 1.692 1.363 1.698-1.834 1.134-1.392-.87M813.103 514.467l-5.877-6.192-.85-4.293-.523-4.254 3.926.871 3.332 4.135-.008 9.733M609.96 331.978l-.818-1.877 3.486.462-.137 3.495 2.356 2.887-3.23 2.77 2.799 2.388-.908 2.487-3.032-.863-1.821-1.94.696-2.333-3.802-2.071-2.035-1.405 3.85-1.39 1.507-1.302 1.089-1.308M581.274 326.41l2.833.306 2.704.932 3.042.188 5.563-.29-1.798 2.457 3.698 2.521 3.555-.924 1.998.704-2.233.937 1.773 2.066-2.53-.48-2.689-1.192-3.115-.86-1.966-1.168-3.69-1.376-3.063.05-3.677-1.488-.73-1.937-1.478.204-.14-.838 1.943.189M158.404 932.247l.358 1.773-.638 2.29-1.467.275.666.843-.188 1.542.973 2.105 1.58.818 1.476-.658 1.888.137.777.397.798-.434-.224-2.847 1.165.247.805-.122 1.57.942-.86 2.268.8-.23.888.945-.297 1.714 1.12 1.135.538.945.663.476.661.474.578-.598.014.718 1.166 1.871.16 1.082-.728.283-.368.758.334 1.33.783 1.437.778 1.114-.412 1.033.427 1.089.408-1.023 1.102-.316.113 1.315.764.956-.001.888-.637.914-1.038.698.286.497.286.497-1.083.14.423 1.65.623 2.147L493.207 39.111l.67 1.762.653 2.317-.624.27-.215-.768-.362.078-.065 1.283.378.411.377.41.77-.52 1.705 1.1.892.94.858 1.34 1.52 1.173.441 1.14 1.182 1.416 1.771 1.132.964 1.368.82 2.12 1.378 5.014.91 1.777 1.85 2.056 1.667.676 2.82.207 1.531.523 1.476 1.849 1.7 1.698 1.746 2.706 1.75 1.53 2.216 2.972 1.413 2.535.235 1.089 1.337.985 2.106 2.34.35 1.809 1.825 3.037.294 2.361-.14 1.61-.968-.212-.168.892-.952.364-.52.906.176 1.648-.357 1.174.093 1.786.723 3.792 1.312 3.364.28 2.26 1.457 2.162.089.87-1.224 1.415.868 1.247.696 1.998-.392 2.117 1.123.872.595 2.07.387 1.82-.332.855.167 2.582-.261 2.384-.557.968 1.05 1.862.788.28.862 1.37.907-.84.305-1.41.831-2.011-.178-1.456-.68-2.649-.04-.799-.24-.368.185-1.035-.418-.184.452-1.888-.329-1.025.014-1.168-.717-2.092.554-2.796-.063-1.5.024-1.557.63-1.417-1.08-.72-.289-1.691-.21-1.627.316-.426 1.528-.372.411.252-.265 1.9.704 2.319.974 2.177.811 1.315-1.128 1.8-.428 1.565.643 1.396.919 2.004.48-.154.195.976 1.033 1.393.477 2.197-.27.095-.83-.664-1.355.466-.72 1.086.694 2.744.893 1.417-.081 2.01-.123 2.084-.132 2.55-.4 2.721-.36 1.47.549 2.189.797.843-.177.836 1.08.78.348 1.085 1.74 1.336.283.694-.541 1.476.48 3.57-.382 4.32-.401.518.367 1.3.249 2.892-.924 2.11.189 1.905-1.6 1.746-1.17 2.104-.53 2.188-2.037 1.872-1.495 2.085-1.483 2.098-1.56 3.465-.657 2.4-.165 1.412-.47.368-1.927-2.164.375-2.84-.776.434-.824 2.2-.528 2.356.218.124 1.799 4.15.527 1.698.72 1.76-.406 2.646-1.083 1.367 1.279 2.146-.911 2.092.65 2.781-.728 1.246.197 1.363.71 1.506-.94 2.294.422 2.973-.79 2.642 1.07.944 1.87 1.403.906 1.658.59 4.083.718 1.25 1.235 2.313 1.595 1.08 1.132 2.754.347 1.958 1.47.638 1.156-1.546.66.419 1.523.755 1.512.265 1.475.762-1.073 1.221-2.412 1.336-1.583-.477-.257.736 2.273.23 1.98-.509 2.776.257.354-1.644 2.376-.224 1.874.492 1.564.64 1.183-.449 2.536 1.03 1.32-.369 1.998.79.433.992 1.443.773 1.65.817 1.479.617 2.092 1.925-.269.45-1.99-.825-1.526-.855-2.151-.579-1.313-1.413-1.35.013-2.538-.759-.638.051-1.422-.308-1.812 1.037-1.727.391 1.643.818-.11.648 1.258.048-.598 1.558 1.024-.245-.823 1.209 1.698.565.476.732-1.3.987-.978.334-.34 1.271 1.39 1.24-.507 1.65-.1 1.131-1.34.779-.51 1.457-1.616.337-1.84-.134-1.435.329-.687-.754-.073-.952-1.647-.133-.286-.872-1.221-.3-.912.883-.042.827-1.362-.138.425.579 1.179.718.703-.02-.018 1.11 1.12 1.273.283 1.82-.727.958-.723 2.023-1.751-.847-2.381-1.465-.464-.766 1.245-.587-1.347-1.923-.939 1.67-.182 1.676-.782 1.352-.503 1.45-.066 1.645-1.528.209-.959-1.47-1.711-.397-1.253.522-1.617-.092-.763-.573-1.997-.707-.348-.779-2.007-.19-.399-1.41.533-1.304-.67.042-.896-1.258.508-.39-.62-1.355-.859-.486-.791-2.003-1.161-1.422-.31-.756-1.258-.475-.596-1.566-.588-.956-1.06-1.63-.505-2.006-.729-.804-1.38.502-1.485.11-1.083-1.047-1.893.362-1.734-.114-.067-1.356-.95.276-.775 1.119-.47-.557.425-2.625-1.986 1.25.728-2.056-1.324-.038-.66.641-1.067-.584-1.045-1.662-1.967-1.755-1.246-.881-1.046-.09-1.031-1.794 1.85-1.025-1.786-1.108-3.024-.302-1.03.336-.887-1.96-1.45 1.303.937 1.419-.848.904-1.329-.037-.896.199-.804-.801-.972-1.727-1.275.15-1.953-1.465-1.807.445-1.69-.065.167 1.907-.985.565-1.807-.957-.162-2.923-.594 2.513-.936-.01-.218 3.153 1.343 1.786 1.33 1.14.176 3.38-.928 2.315-1.31-.337-1.163-1.21-1.901-3.238.707-1.651-2.096-.31-.529-3.161-1.055 2.693-1.736-1.717-.134-2.374-1.589-1.867-.733 2.535-.164 2.88.841 3.386-1.562.195-1.701.043-1.951-1.018-.597-1.488.287-1.92-1.369-1.375-.352-1.556 1.744-2.92 1.625-.957 1.535.626.01-1.667.693-2.935.123-1.466 1.219-2.438 1.97-.507.943-1.487-.137-2.089 1.66-.565 1.625-2.717 1.508-3.666.562-2.533.067-3.723-2.46-.51-.836-3.023-.873-2.461-2.476.732-3.442-1.235-1.944-1.125-1.487-1.472-2.488-.688-2.229-1.196-3.28.26-2.216.02-.176-3.08-1.205-3.441-2.175-3.754-3.894-2.908-1.554 1.498-.476 3.986 2.35 5.432 1.866 1.545-2.867 2.42-1.597 3.078-.356 2.755.878 2.267 2.164 2.521 2.941 1.897-.915 4.16 1.726 2.764 2.27 4.931-.776 1.12-2.903.105-1.675.324-.87 1.38-1.881-.451-2.751-.969-1.079-1.019-2.896 1.178-1.385-2.73-2.7-3.85-1.834.305-2.314-1.268-1.447 3.255.628 4.515-.079 2.14-3.116-1.967-4.945-2.557-4.667-2.49-.738-2.57-3.792-.097-3.101-.625-3.68 1.524-2.076-.038-3.103-2.144-1.905.868-1.884-.551-3.448-3.649.454-2.605.582-2.506 2.777-4.081.897-5.09 3.76-3.183 5.739-2.132 3.726-1.841 2.444-1.467.898-3.718 2.6-3.05 2.01-6.62 2.073-4.68-2.184 1.345-2.657 6.757-4.237 5.498-3.71 2.138-3.25-.842 1.274-3.888-2.833-4.046-2.308-2.764-4.805-.432-4.668 3.006-.385 6.312-1.896-2.93-2.772-.475 2.234-4.84 5.685-5.842 2.414-3.081 2.428-4.546 2.58-.5 1.38 3.7-4.028 5.629 4.831-2.028 3.2-1.705-1-1.238 2.653-3.139 2.79-2.395 2.987-2.106 1.097-2.943.337-1.088-.425-2.32-1.528-2.127-1.4.155.67 1.55-1.191-.785.012-1.327 2.123-1.145 1.615-.192 2.309-1.158 1.425-.432 1.882-.474 2.58-1.575-4.732 1.415-1.103-.694 4.493-1.894 2.098-.224-.045.538.885-1.287-.986-.11.457-3.169 2.245-3.481.304 1.096.745.188 1.14 1.017-.793-2.273-.866-.733-.112-1.633 1.051-1.711 1.907-3.462.312.172-1.048 2.932 1.747 1.614.457 3.517.599-1.84-.741-2.684 2.21.659-2.306-1.363-.121-4.074-.988-.31-.34-1.502-.378-4.367 2.429-3.119 3.764-1.01 2.546-2.27 1.776-.08 1.944-1.318.677-1.323 4.186-2.094 2.257-1.59 2.05-2.065 1.099-2.71-.008-2.882-.376-3.665-.879-3.206.416-1.735-.455-5.104.882-2.674.618-1.509 1.648-2.15 1.233-.156 1.6 1.04.013 1.886 1.054 1.312.825 3.882.733 3.405.083 1.642-1.397 2.353.391 2.362 1.785 3.853 1.137.903 3.723-.833.527.341 1.087 2.132 1.737 1.435 3.641.528 2.603 1.174 2.373.444 1.4-.16-.256-1.08.487-1.379-.423-.882.719-.267.95.864 1.33-.278 2.11.821 1.586 2.495 2.652.446 1.807 1.474 1.832.392 2.616.106 3.392-1.381 3.24-.262 2.072-.853 1.19-1.103.913-2.066.491-1.5-.066-1.246 2.226-2.147 1.456-1.91 2.072-3.834.957-1.293.319-1.815-.13-1.837.605-2.522-.695-3.096.228-1.99-.318-1.999-2.536-2.35-.5-1.849-2.922-.498-2.341-.848-2.451-.585-2.113-.423-2.523.315-1.62 1.48-1.534 2.545-.96.688-2.438-.109-3.589-.718-2.708-1.353-2.04-.563-.446-1.056.84-1.585 2.618-1.215 1.703-1.667-.301-.853 1.163-1.196 2.053-2.158.364 1.23.673.272.229-.48-.577-.31.499-.853L488 59.096l-.01-.636.923-.973-.03-.407 1.216-1.413 1.054-.51.602.201 1.198-.75-.669-1.113-.52.32-.762-.98-.154-.216-.979.182-.902-.441-.142-.417-.565-.107-1.278-1.085-1.488-.714-1.208-.197-.57.162-.916-.72-.639-.64-.877-.38-.794-.06-1.22-1.264-.475-.354-.649-1.17-.527-1.275-.903-1.178-.345-1.415.466-.165.593-.658.371-1.42 1.413-.702 1.136-1.127.975-1.387.341-.95L164.73 961.729l.686-.015 1.165-1.193.322-.985 1.17-.402.411-.953-.139-.836.115-.622.232-1.623-.35-2.086-.546-2.356" stroke-width="3.54268113"/><path d="m528.608 311.322-.747-1.073.087-.983 1.34-.703.714.131-.364 1.142-.845 1.41-.185.076M525.306 303.824l1.072-1.563.894 1.026-.496 1.069-1.377 1.005-.812-.395.72-1.142M521.303 309.186l.739-1.578 2.134-1.852 1.788 1.114-.928 2.474.163 1.35-2.192.594-1.572-1.098-.132-1.004M501.681 319.89l1.991.546.517 1.011-2.133 2.626-.993-3.639.195-.488.423-.056M495.59 317.698l.577-.965 1.393.864 2.258 1.818 1.148 2.217-.855.875-1.69-.043-1.225-.606-1.141-1.683-.806-.265.342-2.212M480.638 267.59l-.178.943-.433.289.322.629-.996.36-.945-1.403-1.892-.718-.987-1.76-.932-.711.456-1.092.413-2.479.996-.477 1.315.105.855 1.077.188 1.066-.28.863.982-.205.742.882.52 1.28-.146 1.35M466.707 283.991l1.023 1.931-.626 1.087.871.813-.106 1.21-.952 2.523-2.57 2.022-1.123-.778.024-1.55.115-2.214-.575.08.044 1.516-1.204 1.129.853.902-1.107.288-1.735-.606 1.074 1.22 1.214 2.097-.466 1.338-1.252.41-2.339-1.743-.718-.248-.56-1.649-.136 1.218-2.26-.589-2.014-.46-3.481.024-2.045.865-.146-1.113-.984-1.208-1.706 1.364-2.722.212-.301-.879-2.778 1.125-.233-1.962-1.339 1.03-1.156-.304-.487-1.335.05-1.32-2.296 1.114-1.483-.031 1.477-1.926-.85-.584-.926 1.323-2.102 1.299-2.732.369-.595-2.041 1.36-.795 2.05-1.198-2.328.173-1.666-1.494-.386 3.045-.245 1.597-2.844-3.354-2.391-3.697-.59-3.976.282-1.434-1.026-1.66-3.2-2.834-1.546-3.76.185-1.031-.17-2.2.005-2.364-1.592-2.137-2.406-1.079-1.931-1.796-1.547-3.894-3.052-.705-2.54-2.227-3.014-2.707 1.162-2.617 4.313-.832 2.132-3.23 2.827-.268 3.78 1.237 5.567.475 2.42.858 2.722 1.894 3.907.512 1.705 2.082 1.557.086 2.35 3.624-.142 2.317.88 1.26 2.042 1.782-.177-1.818-.008-.835.291-1.164 1.811-.43 1.825 1.437 1.104 1.494-.61.833-2.107 1.28 2.869-.23 1.5-.039.31-1.12 1.208-.134 1.63 2.873 1.326.33 2.213.901 3.29 1.476 1.643.059.972.925 2.797-.19 1.336-.927 1.457-1.403 1.324-1.307 1.286.307 2.134.922-.931 1.838-.991.964 2.796-1.047 1.913.265.556 1.06-1.066 2.5-.753 2.466.558.988 1.81-.063.403 1.228.122 2.693-.262.696 1.08.847-.146 1.275-.496 1.264-.766 1-1.029-.19.754 1.842-1.473.232-.5.394-1.293.33 1.92-.124 1.1.68M387.23 786.134l.04-.287-.452-.936.738-.745 1.3-.436 1.681.136 1.17.203 1.375.293.693.892.556.86.513.928.427.972-.247 1.01-.95.53-1.132-.13-.692-1.06-.878-.5-1.15-.436-.993-.347-.924-.442-1.076-.505M412.114 302.235l-2.319.04-2.105 2.079-3.064-1.482-3.13-4.247-.817-1.349.38-2.22 1.045-4.634 1.654 1.585 1.838-3.433.672 2.768 1.074-.07.918-3.164 2.326 1.096.495 2.205-2.408 2.325 2.071 2.125-.863 1.901 2.146 2.119.087 2.356M371.982 331.465l-2.371 1.659-4.082.014-4.216-2.98-.958-3.641 4.85.153 3.358-2.828 4.188 1.743 2.41.84.94 1.658-1.123 3.263-2.996.12" stroke-width="3.54268113"/><path d="m390.06 327.293 1.324 1.95-4.553-.05 1.396 1.585 1.025 1.93-2.907 1.024-3.872.008.878 2.034-3.076 4.328.307 1.602-2.818 3.575-.857 1.405 1.068 2.683-2.109 1.245-1.625-.28-.995 1.973-2.952-.5-1.958-2.697-3.375-2.913-.004-1.437-2.53-.395-.907-2.304-2.326-.77-.015-1.653 5.684 1.082 1.936 1.47-1.47-3.742 1.051-1.422 2.379 1.623 1.204-2.234 2.499-.876 1.44 3.21 2.122-.868 1.341-2.572-.707-2.734.69-.964 1.914-.08.622-1.127-2.175-.238 3.306-1.76 1.32-1.81 3.904-.961 3.42.128.4 1.532M359.769 394.597l1.862-.134-.105 3.196-3.11 3.966-1.001-.939-1.727.402-.383-1.486 2.54-3.91.732-2.184 1.192 1.089M363.732 389.333l2.298-.084-1.524 2.884-2.458 1.835-.605-1.386.987-2.458 1.302-.79M460.892 311.692l.938-.451.545.537-.391 1.169-.453 2.83-1.853-.294-1.89 1.185-.795-.06-2.12 1.356-.619-.572.587-2.277 1.215-.163.148-1.283 1.454-2.402 1.76-1.63 1.688.624-.696.835.482.596M401.826 358.144l-.742 1.66-2.766 1.207-.126-2.843.825-1.206 2.809 1.182M369.212 412.39l2.04.722-2.195 2.027-.121 1.182-1.365 1.376-1.362-2.213-1.13-1.031-2.7-3.59 1.287-1.45 2.795 1.941 2.75 1.036M466.063 315.616l-1.634.67-1.376-.833-.735-1.504.55-.615-.451-.604.702-1.3 1.613.627-.044 1.005.98-.256.36 1.386.035 1.424M460.576 319.445l-1.87-.11-.293-1.3.86-.214.438-.926 1.297.482-.616.964.184 1.104M394.26 433.538l-.61.791-3.704-.97.202-.498-2.862-1.7.947-1.135.994 1.533 2.012.517 1.782.86-.241.508 1.48.094M410.597 438.15l1.717.49 2.39-.32-1.925.836.053.845-2.78.562-1.09-.691-.252-1.333 1.352.227.535-.616M428.275 414.219l2.023 1.73 1.993 3.089M443.752 576.21l.691 1.165.631 1.804.372 3.275.661 1.283-.287 1.3-.48.79-.867-1.608-.508.796.47 2.022-.253 1.148-.732.617-.2 2.3-1.07 3.153-1.32 3.73-1.633 5.135-1 3.773-1.151 3.147-2.018.637-2.154 1.156-1.427-.683-1.976-.948-.71-1.423-.207-2.407-.926-2.15-.271-1.95.416-1.97 1.165-.491-.007-.904 1.195-2.078.21-1.734-.614-1.28-.513-1.708-.241-2.501.895-1.533.334-1.728 1.307-.111 1.463-.566.972-.494 1.155-.038 1.504-1.546 2.18-1.663.805-1.36-.352-1.163 1.125.336 1.484-1.872.068-1.632.898-1.204.916 1.178M474.08 318.872l1.045-.132.667.22-.178.761.486-.558.563-.306.454.807-.302.365-.724.162-.48.064-.223.422-.708.246-.25-.832.588-.734-.938-.485M473.166 339.212l2.342-2.062.053-1.31 1.856-1.187 2.508-1.494 2.261-.341 1.164-.998 1.25-.35.46 1.108-.436.881-2.45 1.342-2.258 1.18-2.628 2.392-1.598 2.554-1.78 2.461-.256 2.357 1.356 2.584-.585.163-2.958-.92.025-1.29-1.438-1.125.254-1.532 1.021-.379.339-1.523 2.142-2.01-.644-.5M446.693 418.654l2.473-2.551 1.976-.15 1.147-1.518 1.887-.315 2.388-.918 1.536.887 1.927.086.157 1.755-.632 2.675-1.667-.601-1.724.253-.326 2.025-1.903-.51-.053.917 1.017.846.614 2.61 2.264 1.2.296 1.005-.62 1.107.051.688.482 1.858.4-2.012 1.725-.56.464 1.632 1.398 1.772-1.912.748-1.928-.844-.675 2.293 1.4.281-.704 1.85 1.608 1.064-.523 2.866.275 1.98-.255.63-3.52.475-3.125-.76-1.403-1.547-2.038-.811-.454-2.136.11-1.388.879-.553.49-.93.637-2.119 1.785-.017-.57-.826-.973-.25-.823-2.114-.902-1.62-1.77-3.632.501-1.853-1.387-2.968M597.878 880.167l-2.058 2.4-6.873-3.984-1.025-2.592-4.139-3.073 2.316-.514-2.257-4.933.74-.668 1.459-2.394 6.163-.18 4.197 1.266 6.58-.182 2.85 1.439-2.046 2.885-4.432 3.419-.543 2.93-.932 4.181M866.409 318.947l4.11 5.008 3.955 4.92 1.34 5.954-1.64 10.018-2.41 7.06-3.664-.6.341-10.328-1.903-5.854-5.394-.657-.537-1.452 5.369-2.148-2.168-5.796-4.177-2.017-4.895-4.589-5.332 2.454-1.588-5.532.988-2.266 5.17-1.318 6.792 1.423 2.349 4.933 3.294.787M842.204 312.052l1.829-4.157 4.23-2.512 3.305 2.025-4.787 3.351-2.862 3.059-1.902 4.808-2.729 5.968-1.529 7.046-2.57-2.188 1.648-5.276 1.332-3.428 1.263-4.208 2.772-4.488M850.082 288.643l.731-3.366 3.21-6.52.667-5.252 2.857-.149 2.091 1.804-1.23 5.287-3.51 6.311-5.6 4.672-1.3-.816 2.084-1.971M853.228 262.712l.47-4.49 1.393 1.167.433 4.36-1.201 5.058-1.515.363.42-6.458M847.708 240.6l.783-3.122 1.03-1.324 1.402 7.214.409 5.486-.414 4.237-1.434-.527-.638-4.303-1.138-7.66M852.365 223.219l2.356 2.113 2.93 4.236.258 2.18-2.831 1.88-2.725-4.887-.583-3.089.595-2.433M846.218 220.145l1.844-.202-.889 8.95-2.445 4.384-1.75-2.008 2.728-6.288.512-4.836M848.5 212.838l.175-3.414 4.023 3.63-1.131 5.644-2.108-4.6-.959-1.26M545.074 1057.858l-4.18-5.58-2.515-3.85 2.72-1.07 3.083 2.6 3.94 4.19 3.402 4.84 3.196 6.37.25 2.8-2.962-.99-3.099-3.57-2.26-3.22-1.575-2.52M514.903 926.636l-1.985 3.392-1.24 3.03-.49 3.891-.99 1.542.166 2.741-1.975 2.772-1.247-1.8-1.242-1.72-2.049 2.419-1.413-1.715-.423-1.905.761-2.378 1.308-3.856 1.158-2.265-1.812-1.775 2.441-.805 2.173-2.557-.18-3.161.055-5.017 1.526-2.862.92-1.845 2.708-1.153 2.566.474 3.35-1.328 1.32 1.306-.014 4.04-1.978 6.192-1.738 1.714-1.676 2.63M842.68 162.649l-.053 2.115-2.448 4.636-1.701-3.373 1.657-5.261 1.16 1.567 1.385.316" stroke-width="3.54268113"/><path d="m840.913 160.02-319.66 922.876 2.281.13 318.414-924.508-1.035 1.502M494.382 948.566l.948-2.598 1.174-3.335 2.256-2.272.815 1.061 1.548.362-1.274 4.116 1.587 2.322 4.204 1.176.205 1.73-2.393 2.084-.11 3.732.56 3.065 1.938 3.062-.014.871 2.114 1.832 3.67 4.114 2.103 3.467-1.552.536-2.516-2.648-3.302-1.047-1.494-4.293-3.299-4.805.223 3.271-1.843-1.156-.886-3.519-3.115-1.237-2.486-.161-1.944 1.877-1.85-.418.6-4.035.84-2.699 2.677-.179.78-1.479-.563-1.896.399-.9M473.498 1053.718l-1.383.23-.847-1.93 1.737-1.96 2.898.56 2.122 1.61-.482 2.18-2.372.77-1.673-1.46M463.837 1054.028l3.073.25 3.06.39-.257 1.86-2.489-.15-1.403-.42-3.011.09M536.497 278.467l.41.91-.796.386-1.407-.76M396.687 173.54l-1.937-1.576-2.38.419-2.654 1.442.594-2.455.972-.802 4.566.107 1.344 1.091-.505 1.774M531.66 190.01l-.127-1.61-1.047-1.916.074-1.743 1.019.112 2.04 2.629-.02 1.143.915 1.68-.127.855-.17.487-.19 1.666-.466.478-1.304-1.48.77-.044-1.314-1.107-.053-1.15M403.494 184.324l-.705.765-3.826.77-3.514-.184-.485-.68 1.223-.774 4.004-.548 3.303.651M534.993 205.49l-1.44-.673 2.141-2.389-.02-2.686.571.375.162 1.63-.188 1.413.22 1.19-.429 1.186-.577.683-.44-.729M551.589 234.392l-.489-.853.233-1.026 1.82.116 1.759.47-.058 1.04-.847.988-1.598-.41-.82-.325M556.76 253.379l-.311-1.059.847-.634.785.526-.01 1.037-.259 1.084-1.052-.954M452.003 214.795l-.29 1.155-.64.123-.597-.544.064-1.905.772.07.696.854-.005.247M461.81 247.11l-.303 1.52-2.618-.52-1.92-.72-.784-1.178-1.31 1.575-2.001-1.22-2.904.317-1.553-.556-2.692-1.93.955-2.538-3.666-.174-2.083.602-3.451-1.332-1.809 1.188-1.248-2.165-.535-4.81 2.364.132 3.762 1.456 1.257-1.354-.918-1.765-2.383-.873-2.59-.206-1.057-.413-2.884-2.303-1.027-2.457 2.28-.35 4.922.297-3.527-1.448-2.63-.916-.921-.917 4.674-1.15 4.077.126 2.492.65-.043 1.124 2.831.59 2.66.602-.427-.895 3.745-2.13 1.562.658-.01 2.645-2.427 1.053-2.47 1.598.943.892.301 1.728-.04 3.705 1.008 1.144.962.786 2.404.585 2.664-.015-.34 1.065 1.943 1.342.98-.226 1.228.676.19-1.103 1.738-1.1 4.028-.545 2.436.311 1.777.075 1.072.896-.739 1.615 1.396-.285.923 3.015-.112 2.847-.596 1.434-1.947 1.387.063-2.104-1.229-1.665-.078 2.647-1.699 1.94-2.617-2.468-.63-1.974-1.418 1.582M457.9 214.521l-.752 1.76-2.036.501-.14-.637 1.3-2.249 1.093-.179.534.804M551.482 263.573l.162-.898-.576-.567.223-1.202-.218-1.254.312-.044.937.581-.123 1.11-.247.635.598.917-.1.365-.968.357M459.825 223.093l-1.769-.693-1.85-.542-.574-1.483-.957.562-1.341-.743.956-1.405 2.454.137 1.18 1.232.976-2.062 1.693-2.127.885 1.783 1.88-.682-.932 1.821.34 2.55.182 3.003-1.001-.038-.578-1.334-.56.656-.984-.635M541.397 277.003l1.242-2.97 1.617-3.492 1.618-.53.361-.935-1.752.97-.754-2.836 1.414-3.024 1.555.494 1.022 1.582 2.463-1.04.71.212.355 1.059-.549 1.19-.19 1.736-1.025.652-.032 1.238.751 1.112-.722.88-1.043.08 1.018 1.08 1.083-.863 1.301.287" stroke-width="3.54268113"/><path d="m451.599 234.245.347-1.243 1.26-.736.928 1.366.25 1.906-.833.878-1.26-.418-.625-1.277-.067-.476M542.639 274.033l-1.242 2.97M486.889 245.126l-.892-1.268-.39-2.938-.167-2.125-1.591-1.566-1.81-1.47.127-1.332 1.744-.194-.637-1.188.41-1.095 1.944.588 1.772.968 1.25-.044 2.13-.726 2.765.042 1.93.133.245 1.48 1.19 1.12.974-.076.575 2.563-.723.115-1.608.088-1.33-.454-1.373.227 1.706 1.077 2.073.288 1.307.436.174 1.172-2.421.521 1.4.344 1.322 1.202-1.364 1.852-.907.939-2.649 1.147-.719-.74.716-1.244-2.067.479-.942-1.672-1.207 1.338-.663-1.066-.379-2.979-.601 1.169.29 3.086-.795.352-.81-.55M477.36 234.845l-1.11-1.686.612-1.127 1.54.85.882-.365 1.507 1.346-.922.959-.688 1.345-1.152-.81-.67-.512M534.704 279.004l-.142-.074-.21-.704.347-1.445.38-.05.911.665.507 1.07" stroke-width="3.54268113"/><path d="m498.082 251.514-.871-.916-1.89-.719-.539-1.01-.562-1.4 1.196-.46 2.577-1.387 1.67-1.588.405-1.195 2.783-.46-.008 1.353 1.34 2.209-.832.96-1.359 1.7-1.366 1.486.068 1.922-2.612-.495M481.57 243.863l.996 1.95-.974 1.472-1.03-.59-1.483.483-.296-.854.703-1.51-1.458-1.195-.063-2.745 1.51-1.276.946.216.694 1.138 2.29 2.235-.015 1.04-1.82-.364M476.81 248.573l-1.731.166-1.725-.424.767-2.928.967-.761.669-2.404 1.082-.012.845 2.603.143 1.504-.3 1.33-.717.926M471.8 250.37l1.38.05 2.298.53.563 1.591.357 1.46.943 1.175 1.504.149.91.825-.11 1.249h-1.39l-.903-.828-1.331.265-.803-.842-.088-1.147-.977-.48-.635-.59-1.026.13-1.144.065-.953 1.003-1.364.767-1.228.254-1.219-.751-.677-1.107.143-.962.897-1.082 1.127-.018 2.105-1.196 1.622-.51M487.238 253.375l-.674.444-.741-.172-.056-1.454.538-1.375 2.63-.213 2.13-.97 1.19.152-.09.954-1.782.995 3.394.322.884.759-1.634 2.517-.809.653-1.725-1.33-.996-1.906-1.247-.38.683 2.91-.743.989-.66-.408-.104-1.417-.188-1.07M476.479 251.215l.248-1.228 1.184.067 1.043.675-.262 1.393-.97.944-.812-.949-.431-.902M497.417 256.37l-1.77 1.68-1.793 1.421-.92-.282-.932.22.575-2.157.733-.862.648.018 1.565-.847 1.202-.086.692.896M488.78 260.345l-.792-.554.299-.849 1.274-.681.771 1.077-.64.837-.912.17M477.914 258.74l.277-.135 1.228.008.277.806-1.262.144-.535-.472.015-.35M480.248 262.144l-.842-.926.006-1.09.835-.729.578.633.368 1.084.165 1.218-.752-.037-.358-.153M485.236 263.45l-1.077-.405-1.563-1.02-.539-1.378-.325-1.218 1.028.271 1.027.927 1.325.111-.576.868.683.717.017 1.127M488.372 262.212l-.676-.669.767-.49.964.134-.07.41-.702.784-.283-.169M463.249 248.047l1.566 1.162.386 1.061-.312.353-1.984.502-2.16-.886-.466-.748.937-.354.94-.362.768-.8.325.072M480.708 255.57l-.02.395-.658-1.332-.168-1.529.153-2.254 1.263-.389.853.444.043 1.742 1.21-.255.067 2.297-.759-.077-1.003 1.06-.98-.102" stroke-width="3.54268113"/><path d="m479.442 271.724-.449.701-.429.224-.605.697-.167 1.231-.495.025-.702-.61.363 1.586-.242.63-.432.575-.891.625-.325-.181-.6.97-.733.28-.73.314-.89.432-.841.242-1.062-.104-.554-.58-.172-1.638.383-1.14-.117-.775-.737.634-.328-2.11.11-1.163-.72-2.533.658-1.038-.028-.714 1.31-1.128-.869.045.081-.67-1.164-1.073.004-1.202.467-1.222-.257-1.212.456-1.23-.376-.593-1.016.617-.348-.667.974-2.487 2.08.075 1.847-1.14 1.13.045 1.344-.195.438 1.389-1.032.987.912 2.01-.311.312-2.037-.717 1.444 1.565 1.122.26-.125 1.255-.753 1.005.199 1.043 1.112.858.693 1.396-1.352.343-.496-.155-.31 1.314 1.16-.102 1.557-.75 1.106.724.692 1.055.72.71.333.955M486.83 246.682l-1.128.043-.61-.686.869-1.923 1.189 2.175-.32.39" stroke-width="3.54268113"/></g></g></svg>