<?xml version="1.0" encoding="UTF-8"?>
<svg width="24px" height="24px" viewBox="0 0 24 24" version="1.1" xmlns="http://www.w3.org/2000/svg" xmlns:xlink="http://www.w3.org/1999/xlink">
    <path d="M21.5530779,15.3109296 L23.3903895,16.1824749 C22.4324749,18.6636306 20.9563442,20.5833857 18.9619975,21.94174 C16.9676507,23.3000943 14.5964196,23.9792714 11.8483041,23.9792714 C8.12657041,23.9792714 5.22141962,22.9624685 3.13285182,20.928863 C1.0442839,18.8952575 0,16.1589196 0,12.7198492 C0,9.01381906 1.23665198,5.96733672 3.70995606,3.58040201 C6.18326002,1.1934673 9.46136937,0 13.544284,0 C16.4808417,0 18.7264448,0.592807839 20.281093,1.7784234 C21.8357413,2.96403895 22.6130653,4.39698488 22.6130653,6.07726131 C22.6130653,7.30213568 22.2715138,8.27182794 21.5884108,8.98633797 C20.9053078,9.700848 20.0062814,10.0581031 18.8913317,10.0581031 C17.9177135,10.0581031 17.1443153,9.77936563 16.571137,9.22189073 C15.9979586,8.66441584 15.7113694,7.93812808 15.7113694,7.0430277 C15.7113694,6.27355526 16.0254397,5.37845475 16.6535805,4.35772607 C16.9205402,3.93373122 17.0540201,3.6353643 17.0540201,3.46262569 C17.0540201,3.1485553 16.8106156,2.86589198 16.3238066,2.61463574 C15.6328518,2.22204772 14.7298995,2.02575377 13.6149497,2.02575377 C11.5420854,2.02575377 10.0423995,2.68530151 9.11589202,4.00439698 C7.87531405,5.74748744 7.25502513,8.38567839 7.25502513,11.9189698 C7.25502513,15.4522613 7.87138818,17.937343 9.10411429,19.3742148 C10.3368405,20.8110867 11.9268216,21.5295226 13.8740578,21.5295226 C15.4130025,21.5295226 16.861652,21.0152324 18.2200063,19.986652 C19.5783606,18.9580716 20.6893844,17.3994974 21.5530779,15.3109296 Z" id="Logotype-path"></path>
</svg>
