<?xml version="1.0" encoding="UTF-8"?>
<svg width="1650px" height="690px" viewBox="0 0 1650 690" version="1.1" xmlns="http://www.w3.org/2000/svg" xmlns:xlink="http://www.w3.org/1999/xlink">
    <title>Logotype+Cartouche/HD/Couleur</title>
    <g id="Identité" stroke="none" stroke-width="1" fill="none" fill-rule="evenodd">
        <g id="Logotype+Cartouche/HD/Couleur">
            <rect id="Blanc" fill="#FFFFFF" x="0" y="0" width="1650" height="690"></rect>
            <path d="M1650,0 L1650,690 L0,690 L0,0 L1650,0 Z M1649.5,0.5 L0.5,0.5 L0.5,689.5 L1649.5,689.5 L1649.5,0.5 Z M1641,9 L1641,681 L9,681 L9,9 L1641,9 Z M1635,15 L15,15 L15,675 L1635,675 L1635,15 Z M1605,45 L1605,645 L45,645 L45,45 L1605,45 Z M760.5,621 L741,621 L741,639 L760.5,639 L760.5,621 Z M1096.5,621 L1077,621 L1077,639 L1096.5,639 L1096.5,621 Z M1432.5,621 L1413,621 L1413,639 L1432.5,639 L1432.5,621 Z M88.5,621 L70.5,621 L70.5,639 L88.5,639 L88.5,621 Z M109.5,621 L90,621 L90,639 L109.5,639 L109.5,621 Z M130.5,621 L111,621 L111,639 L130.5,639 L130.5,621 Z M151.5,621 L132,621 L132,639 L151.5,639 L151.5,621 Z M172.5,621 L153,621 L153,639 L172.5,639 L172.5,621 Z M193.5,621 L174,621 L174,639 L193.5,639 L193.5,621 Z M214.5,621 L195,621 L195,639 L214.5,639 L214.5,621 Z M237,621 L216,621 L216,639 L237,639 L237,621 Z M445.5,621 L426,621 L426,639 L445.5,639 L445.5,621 Z M466.5,621 L447,621 L447,639 L466.5,639 L466.5,621 Z M487.5,621 L468,621 L468,639 L487.5,639 L487.5,621 Z M508.5,621 L489,621 L489,639 L508.5,639 L508.5,621 Z M529.5,621 L510,621 L510,639 L529.5,639 L529.5,621 Z M550.5,621 L531,621 L531,639 L550.5,639 L550.5,621 Z M573,621 L552,621 L552,639 L573,639 L573,621 Z M69,621 L51,621 L51,639 L69,639 L69,621 Z M424.5,621 L405,621 L405,639 L424.5,639 L424.5,621 Z M781.5,621 L762,621 L762,639 L781.5,639 L781.5,621 Z M802.5,621 L783,621 L783,639 L802.5,639 L802.5,621 Z M823.5,621 L804,621 L804,639 L823.5,639 L823.5,621 Z M844.5,621 L825,621 L825,639 L844.5,639 L844.5,621 Z M865.5,621 L846,621 L846,639 L865.5,639 L865.5,621 Z M886.5,621 L867,621 L867,639 L886.5,639 L886.5,621 Z M909,621 L888,621 L888,639 L909,639 L909,621 Z M1117.5,621 L1098,621 L1098,639 L1117.5,639 L1117.5,621 Z M1138.5,621 L1119,621 L1119,639 L1138.5,639 L1138.5,621 Z M1159.5,621 L1140,621 L1140,639 L1159.5,639 L1159.5,621 Z M1180.5,621 L1161,621 L1161,639 L1180.5,639 L1180.5,621 Z M1599,621 L1581,621 L1581,639 L1599,639 L1599,621 Z M1579.5,621 L1560,621 L1560,639 L1579.5,639 L1579.5,621 Z M1558.5,621 L1539,621 L1539,639 L1558.5,639 L1558.5,621 Z M1537.5,621 L1518,621 L1518,639 L1537.5,639 L1537.5,621 Z M1516.5,621 L1497,621 L1497,639 L1516.5,639 L1516.5,621 Z M1495.5,621 L1476,621 L1476,639 L1495.5,639 L1495.5,621 Z M1474.5,621 L1455,621 L1455,639 L1474.5,639 L1474.5,621 Z M1453.5,621 L1434,621 L1434,639 L1453.5,639 L1453.5,621 Z M1245,621 L1224,621 L1224,639 L1245,639 L1245,621 Z M1222.5,621 L1203,621 L1203,639 L1222.5,639 L1222.5,621 Z M1201.5,621 L1182,621 L1182,639 L1201.5,639 L1201.5,621 Z M69,597 L51,597 L51,619.5 L69,619.5 L69,597 Z M1599,597 L1581,597 L1581,619.5 L1599,619.5 L1599,597 Z M277.5,600 L258,600 L258,618 L277.5,618 L277.5,600 Z M1327.5,600 L1308,600 L1308,618 L1327.5,618 L1327.5,600 Z M361.5,600 L342,600 L342,618 L361.5,618 L361.5,600 Z M382.5,600 L363,600 L363,618 L382.5,618 L382.5,600 Z M405,600 L384,600 L384,618 L405,618 L405,600 Z M613.5,600 L594,600 L594,618 L613.5,618 L613.5,600 Z M634.5,600 L615,600 L615,618 L634.5,618 L634.5,600 Z M655.5,600 L636,600 L636,618 L655.5,618 L655.5,600 Z M676.5,600 L657,600 L657,618 L676.5,618 L676.5,600 Z M697.5,600 L678,600 L678,618 L697.5,618 L697.5,600 Z M718.5,600 L699,600 L699,618 L718.5,618 L718.5,600 Z M741,600 L720,600 L720,618 L741,618 L741,600 Z M256.5,600 L237,600 L237,618 L256.5,618 L256.5,600 Z M592.5,600 L573,600 L573,618 L592.5,618 L592.5,600 Z M928.5,600 L909,600 L909,618 L928.5,618 L928.5,600 Z M1264.5,600 L1245,600 L1245,618 L1264.5,618 L1264.5,600 Z M298.5,600 L279,600 L279,618 L298.5,618 L298.5,600 Z M319.5,600 L300,600 L300,618 L319.5,618 L319.5,600 Z M1413,600 L1392,600 L1392,618 L1413,618 L1413,600 Z M1390.5,600 L1371,600 L1371,618 L1390.5,618 L1390.5,600 Z M1369.5,600 L1350,600 L1350,618 L1369.5,618 L1369.5,600 Z M1348.5,600 L1329,600 L1329,618 L1348.5,618 L1348.5,600 Z M340.5,600 L321,600 L321,618 L340.5,618 L340.5,600 Z M1306.5,600 L1287,600 L1287,618 L1306.5,618 L1306.5,600 Z M1285.5,600 L1266,600 L1266,618 L1285.5,618 L1285.5,600 Z M1077,600 L1056,600 L1056,618 L1077,618 L1077,600 Z M1054.5,600 L1035,600 L1035,618 L1054.5,618 L1054.5,600 Z M1033.5,600 L1014,600 L1014,618 L1033.5,618 L1033.5,600 Z M1012.5,600 L993,600 L993,618 L1012.5,618 L1012.5,600 Z M991.5,600 L972,600 L972,618 L991.5,618 L991.5,600 Z M970.5,600 L951,600 L951,618 L970.5,618 L970.5,600 Z M949.5,600 L930,600 L930,618 L949.5,618 L949.5,600 Z M1578,576 L1560,576 L1560,597 L1578,597 L1578,576 Z M90,576 L72,576 L72,597 L90,597 L90,576 Z M1554,96 L96,96 L96,594 L1554,594 L1554,96 Z M90,555 L72,555 L72,574.5 L90,574.5 L90,555 Z M1578,555 L1560,555 L1560,574.5 L1578,574.5 L1578,555 Z M90,534 L72,534 L72,553.5 L90,553.5 L90,534 Z M1578,534 L1560,534 L1560,553.5 L1578,553.5 L1578,534 Z M90,513 L72,513 L72,532.5 L90,532.5 L90,513 Z M1578,513 L1560,513 L1560,532.5 L1578,532.5 L1578,513 Z M90,492 L72,492 L72,511.5 L90,511.5 L90,492 Z M1578,492 L1560,492 L1560,511.5 L1578,511.5 L1578,492 Z M1578,471 L1560,471 L1560,490.5 L1578,490.5 L1578,471 Z M90,471 L72,471 L72,490.5 L90,490.5 L90,471 Z M1578,450 L1560,450 L1560,469.5 L1578,469.5 L1578,450 Z M90,450 L72,450 L72,469.5 L90,469.5 L90,450 Z M1578,429 L1560,429 L1560,448.5 L1578,448.5 L1578,429 Z M90,429 L72,429 L72,448.5 L90,448.5 L90,429 Z M69,408 L51,408 L51,429 L69,429 L69,408 Z M1599,408 L1581,408 L1581,429 L1599,429 L1599,408 Z M69,387 L51,387 L51,406.5 L69,406.5 L69,387 Z M1599,387 L1581,387 L1581,406.5 L1599,406.5 L1599,387 Z M69,366 L51,366 L51,385.5 L69,385.5 L69,366 Z M1599,366 L1581,366 L1581,385.5 L1599,385.5 L1599,366 Z M1599,345 L1581,345 L1581,364.5 L1599,364.5 L1599,345 Z M69,345 L51,345 L51,364.5 L69,364.5 L69,345 Z M69,324 L51,324 L51,343.5 L69,343.5 L69,324 Z M1599,324 L1581,324 L1581,343.5 L1599,343.5 L1599,324 Z M69,303 L51,303 L51,322.5 L69,322.5 L69,303 Z M1599,303 L1581,303 L1581,322.5 L1599,322.5 L1599,303 Z M69,282 L51,282 L51,301.5 L69,301.5 L69,282 Z M1599,282 L1581,282 L1581,301.5 L1599,301.5 L1599,282 Z M69,261 L51,261 L51,280.5 L69,280.5 L69,261 Z M1599,261 L1581,261 L1581,280.5 L1599,280.5 L1599,261 Z M1578,240 L1560,240 L1560,261 L1578,261 L1578,240 Z M90,240 L72,240 L72,261 L90,261 L90,240 Z M90,219 L72,219 L72,238.5 L90,238.5 L90,219 Z M1578,219 L1560,219 L1560,238.5 L1578,238.5 L1578,219 Z M90,198 L72,198 L72,217.5 L90,217.5 L90,198 Z M1578,198 L1560,198 L1560,217.5 L1578,217.5 L1578,198 Z M90,177 L72,177 L72,196.5 L90,196.5 L90,177 Z M1578,177 L1560,177 L1560,196.5 L1578,196.5 L1578,177 Z M90,156 L72,156 L72,175.5 L90,175.5 L90,156 Z M1578,156 L1560,156 L1560,175.5 L1578,175.5 L1578,156 Z M90,135 L72,135 L72,154.5 L90,154.5 L90,135 Z M1578,135 L1560,135 L1560,154.5 L1578,154.5 L1578,135 Z M1578,114 L1560,114 L1560,133.5 L1578,133.5 L1578,114 Z M90,114 L72,114 L72,133.5 L90,133.5 L90,114 Z M1578,93 L1560,93 L1560,112.5 L1578,112.5 L1578,93 Z M90,93 L72,93 L72,112.5 L90,112.5 L90,93 Z M69,70.5 L51,70.5 L51,93 L69,93 L69,70.5 Z M1599,70.5 L1581,70.5 L1581,93 L1599,93 L1599,70.5 Z M970.5,72 L951,72 L951,90 L970.5,90 L970.5,72 Z M1264.5,72 L1245,72 L1245,90 L1264.5,90 L1264.5,72 Z M928.5,72 L909,72 L909,90 L928.5,90 L928.5,72 Z M592.5,72 L573,72 L573,90 L592.5,90 L592.5,72 Z M256.5,72 L237,72 L237,90 L256.5,90 L256.5,72 Z M1413,72 L1392,72 L1392,90 L1413,90 L1413,72 Z M1390.5,72 L1371,72 L1371,90 L1390.5,90 L1390.5,72 Z M1369.5,72 L1350,72 L1350,90 L1369.5,90 L1369.5,72 Z M1348.5,72 L1329,72 L1329,90 L1348.5,90 L1348.5,72 Z M1327.5,72 L1308,72 L1308,90 L1327.5,90 L1327.5,72 Z M1306.5,72 L1287,72 L1287,90 L1306.5,90 L1306.5,72 Z M1285.5,72 L1266,72 L1266,90 L1285.5,90 L1285.5,72 Z M1077,72 L1056,72 L1056,90 L1077,90 L1077,72 Z M1054.5,72 L1035,72 L1035,90 L1054.5,90 L1054.5,72 Z M1033.5,72 L1014,72 L1014,90 L1033.5,90 L1033.5,72 Z M1012.5,72 L993,72 L993,90 L1012.5,90 L1012.5,72 Z M991.5,72 L972,72 L972,90 L991.5,90 L991.5,72 Z M277.5,72 L258,72 L258,90 L277.5,90 L277.5,72 Z M949.5,72 L930,72 L930,90 L949.5,90 L949.5,72 Z M741,72 L720,72 L720,90 L741,90 L741,72 Z M718.5,72 L699,72 L699,90 L718.5,90 L718.5,72 Z M697.5,72 L678,72 L678,90 L697.5,90 L697.5,72 Z M676.5,72 L657,72 L657,90 L676.5,90 L676.5,72 Z M655.5,72 L636,72 L636,90 L655.5,90 L655.5,72 Z M634.5,72 L615,72 L615,90 L634.5,90 L634.5,72 Z M613.5,72 L594,72 L594,90 L613.5,90 L613.5,72 Z M405,72 L384,72 L384,90 L405,90 L405,72 Z M382.5,72 L363,72 L363,90 L382.5,90 L382.5,72 Z M361.5,72 L342,72 L342,90 L361.5,90 L361.5,72 Z M340.5,72 L321,72 L321,90 L340.5,90 L340.5,72 Z M319.5,72 L300,72 L300,90 L319.5,90 L319.5,72 Z M298.5,72 L279,72 L279,90 L298.5,90 L298.5,72 Z M760.5,51 L741,51 L741,69 L760.5,69 L760.5,51 Z M69,51 L51,51 L51,69 L69,69 L69,51 Z M1453.5,69 L1453.5,51 L1434,51 L1434,69 L1453.5,69 Z M1432.5,51 L1413,51 L1413,69 L1432.5,69 L1432.5,51 Z M1599,51 L1581,51 L1581,69 L1599,69 L1599,51 Z M1579.5,51 L1560,51 L1560,69 L1579.5,69 L1579.5,51 Z M1558.5,51 L1539,51 L1539,69 L1558.5,69 L1558.5,51 Z M1537.5,51 L1518,51 L1518,69 L1537.5,69 L1537.5,51 Z M1516.5,51 L1497,51 L1497,69 L1516.5,69 L1516.5,51 Z M1495.5,51 L1476,51 L1476,69 L1495.5,69 L1495.5,51 Z M1474.5,51 L1455,51 L1455,69 L1474.5,69 L1474.5,51 Z M1245,51 L1224,51 L1224,69 L1245,69 L1245,51 Z M1222.5,51 L1203,51 L1203,69 L1222.5,69 L1222.5,51 Z M1201.5,51 L1182,51 L1182,69 L1201.5,69 L1201.5,51 Z M1180.5,51 L1161,51 L1161,69 L1180.5,69 L1180.5,51 Z M1159.5,51 L1140,51 L1140,69 L1159.5,69 L1159.5,51 Z M1138.5,51 L1119,51 L1119,69 L1138.5,69 L1138.5,51 Z M1117.5,51 L1098,51 L1098,69 L1117.5,69 L1117.5,51 Z M909,51 L888,51 L888,69 L909,69 L909,51 Z M886.5,51 L867,51 L867,69 L886.5,69 L886.5,51 Z M865.5,51 L846,51 L846,69 L865.5,69 L865.5,51 Z M844.5,51 L825,51 L825,69 L844.5,69 L844.5,51 Z M823.5,51 L804,51 L804,69 L823.5,69 L823.5,51 Z M802.5,51 L783,51 L783,69 L802.5,69 L802.5,51 Z M781.5,51 L762,51 L762,69 L781.5,69 L781.5,51 Z M573,51 L552,51 L552,69 L573,69 L573,51 Z M550.5,51 L531,51 L531,69 L550.5,69 L550.5,51 Z M529.5,51 L510,51 L510,69 L529.5,69 L529.5,51 Z M508.5,51 L489,51 L489,69 L508.5,69 L508.5,51 Z M487.5,51 L468,51 L468,69 L487.5,69 L487.5,51 Z M466.5,51 L447,51 L447,69 L466.5,69 L466.5,51 Z M445.5,51 L426,51 L426,69 L445.5,69 L445.5,51 Z M237,51 L216,51 L216,69 L237,69 L237,51 Z M214.5,69 L214.5,51 L195,51 L195,69 L214.5,69 Z M193.5,69 L193.5,51 L174,51 L174,69 L193.5,69 Z M172.5,69 L172.5,51 L153,51 L153,69 L172.5,69 Z M151.5,69 L151.5,51 L132,51 L132,69 L151.5,69 Z M130.5,69 L130.5,51 L111,51 L111,69 L130.5,69 Z M109.5,51 L90,51 L90,69 L109.5,69 L109.5,51 Z M88.5,51 L70.5,51 L70.5,69 L88.5,69 L88.5,51 Z M1096.5,51 L1077,51 L1077,69 L1096.5,69 L1096.5,51 Z M424.5,51 L405,51 L405,69 L424.5,69 L424.5,51 Z" id="Cartouche" fill="#000000" fill-rule="nonzero"></path>
            <rect id="Applat" fill="#ECE8DB" x="108" y="108" width="1434" height="474"></rect>
            <path d="M385.242646,369.259586 L397.879724,375.254097 C391.291162,392.319553 381.138296,405.523679 367.421126,414.866476 C353.703956,424.209273 337.394564,428.880672 318.492952,428.880672 C292.894768,428.880672 272.913064,421.887075 258.547838,407.899882 C244.182613,393.912689 237,375.092083 237,351.438066 C237,325.947891 245.505726,304.994104 262.517177,288.576703 C279.528628,272.159303 302.075551,263.950602 330.157947,263.950602 C350.35567,263.950602 365.800988,268.02795 376.4939,276.182646 C387.186812,284.337341 392.533268,294.193182 392.533268,305.750168 C392.533268,314.174887 390.184068,320.844456 385.485667,325.758875 C380.787266,330.673294 374.603738,333.130504 366.935084,333.130504 C360.238513,333.130504 354.919059,331.21334 350.976723,327.379013 C347.034387,323.544686 345.063218,318.54926 345.063218,312.392735 C345.063218,307.100283 347.223403,300.943758 351.543771,293.923159 C353.379928,291.00691 354.298006,288.954735 354.298006,287.766634 C354.298006,285.60645 352.623863,283.662284 349.275578,281.934136 C344.523172,279.233906 338.312643,277.883791 330.643988,277.883791 C316.386772,277.883791 306.071892,282.420178 299.699349,291.492952 C291.166621,303.481975 286.900257,321.627523 286.900257,345.929596 C286.900257,370.231669 291.139618,387.324127 299.618342,397.20697 C308.097065,407.089813 319.032998,412.031235 332.42614,412.031235 C343.011043,412.031235 352.974893,408.493933 362.31769,401.419329 C371.660487,394.344726 379.302139,383.624811 385.242646,369.259586 Z M490.229762,263.950602 C507.187209,263.950602 522.767538,267.622916 536.970749,274.967542 C551.173961,282.312169 561.731862,291.897986 568.644451,303.724995 C575.557041,315.552004 579.013336,329.782218 579.013336,346.415637 C579.013336,372.985904 569.967564,393.372643 551.876021,407.575854 C533.784478,421.779066 513.289729,428.880672 490.391776,428.880672 C474.190394,428.880672 459.366129,425.235361 445.918982,417.944739 C432.471835,410.654117 422.129953,400.825279 414.893335,388.458224 C407.656718,376.091169 404.038409,362.130978 404.038409,346.577651 C404.038409,323.139652 412.220107,303.508977 428.583503,287.685627 C444.946899,271.862277 465.495652,263.950602 490.229762,263.950602 Z M491.201845,279.341915 C479.968887,279.341915 471.031124,284.283337 464.388558,294.16618 C457.745991,304.049023 454.424708,321.411504 454.424708,346.253623 C454.424708,372.067825 457.718989,389.862343 464.307551,399.637177 C470.896113,409.412011 479.806873,414.299428 491.039831,414.299428 C502.488808,414.299428 511.723596,409.277 518.744195,399.232143 C525.764793,389.187286 529.275093,371.851807 529.275093,347.225706 C529.275093,321.95155 525.818798,304.319046 518.906208,294.328194 C511.993619,284.337341 502.758831,279.341915 491.201845,279.341915 Z M738.72224,369.259586 L751.359318,375.254097 C744.770756,392.319553 734.61789,405.523679 720.90072,414.866476 C707.18355,424.209273 690.874158,428.880672 671.972546,428.880672 C646.374362,428.880672 626.392658,421.887075 612.027432,407.899882 C597.662207,393.912689 590.479594,375.092083 590.479594,351.438066 C590.479594,325.947891 598.98532,304.994104 615.996771,288.576703 C633.008222,272.159303 655.555145,263.950602 683.637541,263.950602 C703.835264,263.950602 719.280581,268.02795 729.973494,276.182646 C740.666406,284.337341 746.012862,294.193182 746.012862,305.750168 C746.012862,314.174887 743.663662,320.844456 738.965261,325.758875 C734.26686,330.673294 728.083332,333.130504 720.414678,333.130504 C713.718107,333.130504 708.398653,331.21334 704.456317,327.379013 C700.513981,323.544686 698.542812,318.54926 698.542812,312.392735 C698.542812,307.100283 700.702997,300.943758 705.023365,293.923159 C706.859522,291.00691 707.7776,288.954735 707.7776,287.766634 C707.7776,285.60645 706.103457,283.662284 702.755172,281.934136 C698.002766,279.233906 691.792237,277.883791 684.123582,277.883791 C669.866366,277.883791 659.551486,282.420178 653.178943,291.492952 C644.646215,303.481975 640.379851,321.627523 640.379851,345.929596 C640.379851,370.231669 644.619212,387.324127 653.097936,397.20697 C661.576659,407.089813 672.512592,412.031235 685.905734,412.031235 C696.490637,412.031235 706.454487,408.493933 715.797284,401.419329 C725.140081,394.344726 732.781733,383.624811 738.72224,369.259586 Z M933.445571,405.226654 L940.250152,416.891649 C933.661589,421.428036 927.748085,424.560303 922.509638,426.288451 C917.271191,428.016598 911.519701,428.880672 905.255166,428.880672 C895.966374,428.880672 888.459734,426.909504 882.735245,422.967167 C877.010757,419.024831 871.77231,411.599198 867.019905,400.690267 C856.002965,411.599198 846.120122,419.024831 837.371375,422.967167 C828.622629,426.909504 818.739786,428.880672 807.722846,428.880672 C792.493547,428.880672 780.612533,425.370372 772.079806,418.349774 C763.547078,411.329175 759.280714,402.418414 759.280714,391.617493 C759.280714,375.308102 767.165386,362.238987 782.934732,352.410148 C795.57181,344.633485 823.276173,336.856822 866.047822,329.080158 L866.047822,307.208292 C866.047822,298.567555 863.185577,291.519954 857.461089,286.065489 C851.736601,280.611024 844.067947,277.883791 834.455127,277.883791 C827.1105,277.883791 820.629947,279.449925 815.013468,282.582192 C811.233146,284.634367 809.342984,286.686542 809.342984,288.738717 C809.342984,289.818809 810.045044,291.438947 811.449164,293.599132 C814.473422,298.459546 815.985551,303.265956 815.985551,308.018362 C815.985551,314.066878 813.987381,318.954294 809.99104,322.680612 C805.994699,326.40693 800.648243,328.270089 793.951671,328.270089 C786.823063,328.270089 781.098575,326.244916 776.778206,322.194571 C772.457838,318.144225 770.297654,312.932781 770.297654,306.560237 C770.297654,296.083343 775.968137,286.848556 787.309105,278.855874 C801.458312,268.919026 819.063814,263.950602 840.12561,263.950602 C856.002965,263.950602 870.098167,266.434814 882.411218,271.403238 C890.29589,274.535505 896.695436,280.016973 901.609855,287.847641 C906.524275,295.678309 908.981484,305.318131 908.981484,316.767108 L908.981484,393.723673 C908.981484,399.55617 910.061576,403.76853 912.221761,406.360751 C914.381945,408.952972 917.352198,410.249082 921.132521,410.249082 C924.264788,410.249082 928.369138,408.57494 933.445571,405.226654 Z M866.047822,343.175361 C842.93385,346.307628 827.299516,351.14104 819.144821,357.675598 C810.990125,364.210155 806.912777,372.82389 806.912777,383.516802 C806.912777,391.077447 808.829941,396.882942 812.664268,400.933288 C816.498595,404.983633 821.872053,407.008806 828.784643,407.008806 C839.477555,407.008806 848.361313,403.174479 855.435916,395.505825 C862.51052,387.837171 866.047822,377.360277 866.047822,364.075144 L866.047822,343.175361 Z M1052.92968,408.952972 L1052.92968,424.020257 L946.972645,424.020257 L946.972645,408.952972 L960.095764,408.952972 C965.496225,408.952972 969.438561,407.899882 971.922773,405.793702 C974.406985,403.687523 975.649091,400.852281 975.649091,397.287977 L975.649091,307.53232 C975.649091,300.295703 974.001951,295.003251 970.70767,291.654966 C967.413389,288.30668 962.795995,286.632537 956.855488,286.632537 L948.268756,286.632537 L948.268756,272.375321 L1013.07428,268.973031 L1013.07428,318.387246 C1016.85461,301.861836 1023.44317,289.170754 1032.83997,280.313998 C1042.23677,271.457243 1052.82167,267.028865 1064.59468,267.028865 C1074.63954,267.028865 1082.57821,269.702093 1088.41071,275.048549 C1094.24321,280.395005 1097.15946,287.280593 1097.15946,295.705311 C1097.15946,302.941929 1095.13428,308.801428 1091.08394,313.283811 C1087.03359,317.766193 1082.09217,320.007384 1076.25967,320.007384 C1071.07523,320.007384 1066.61985,318.063218 1062.89353,314.174887 C1059.16722,310.286555 1057.30406,305.318131 1057.30406,299.269615 C1057.30406,295.92133 1058.22214,292.41103 1060.05829,288.738717 C1061.03037,286.686542 1061.51642,285.228417 1061.51642,284.364344 C1061.51642,282.852215 1061.16539,281.74512 1060.46333,281.04306 C1059.76127,280.341001 1058.65417,279.989971 1057.14204,279.989971 C1053.25371,279.989971 1048.98735,282.258164 1044.34295,286.794551 C1037.21434,293.81515 1031.21983,304.751083 1026.35942,319.60235 C1021.499,334.453617 1019.0688,349.439895 1019.0688,364.561185 L1019.0688,397.287977 C1019.0688,401.068299 1020.09488,403.957546 1022.14706,405.955716 C1024.19923,407.953887 1027.06148,408.952972 1030.73379,408.952972 L1052.92968,408.952972 Z M1159.22587,210 L1173.80712,210 L1173.80712,272.375321 L1223.86939,272.375321 L1223.86939,289.872814 L1173.80712,289.872814 L1173.80712,386.271037 C1173.80712,392.643581 1175.42725,397.585002 1178.66753,401.095302 C1181.90781,404.605601 1186.17417,406.360751 1191.46662,406.360751 C1206.58791,406.360751 1214.58059,392.265548 1215.44467,364.075144 L1230.02591,364.075144 C1229.70188,379.088424 1227.32568,391.158454 1222.8973,400.285232 C1218.46893,409.412011 1212.12338,416.459612 1203.86068,421.428036 C1195.59797,426.39646 1186.28218,428.880672 1175.9133,428.880672 C1166.84052,428.880672 1158.98285,427.044515 1152.34028,423.372202 C1145.69772,419.699889 1140.40527,414.218421 1136.46293,406.927799 C1132.52059,399.637177 1130.54943,391.725502 1130.54943,383.192774 L1130.54943,289.872814 L1103.65513,289.872814 L1103.65513,274.967542 C1120.07253,272.807358 1132.87162,266.488819 1142.05241,256.011925 C1151.23319,245.535031 1156.95768,230.197723 1159.22587,210 Z M1324.21643,263.950602 C1341.17387,263.950602 1356.7542,267.622916 1370.95741,274.967542 C1385.16063,282.312169 1395.71853,291.897986 1402.63112,303.724995 C1409.54371,315.552004 1413,329.782218 1413,346.415637 C1413,372.985904 1403.95423,393.372643 1385.86269,407.575854 C1367.77114,421.779066 1347.27639,428.880672 1324.37844,428.880672 C1308.17706,428.880672 1293.35279,425.235361 1279.90565,417.944739 C1266.4585,410.654117 1256.11662,400.825279 1248.88,388.458224 C1241.64338,376.091169 1238.02507,362.130978 1238.02507,346.577651 C1238.02507,323.139652 1246.20677,303.508977 1262.57017,287.685627 C1278.93356,271.862277 1299.48232,263.950602 1324.21643,263.950602 Z M1325.18851,279.341915 C1313.95555,279.341915 1305.01779,284.283337 1298.37522,294.16618 C1291.73266,304.049023 1288.41137,321.411504 1288.41137,346.253623 C1288.41137,372.067825 1291.70565,389.862343 1298.29421,399.637177 C1304.88278,409.412011 1313.79354,414.299428 1325.0265,414.299428 C1336.47547,414.299428 1345.71026,409.277 1352.73086,399.232143 C1359.75146,389.187286 1363.26176,371.851807 1363.26176,347.225706 C1363.26176,321.95155 1359.80546,304.319046 1352.89287,294.328194 C1345.98028,284.337341 1336.7455,279.341915 1325.18851,279.341915 Z" id="Logotype" fill="#4D7A5D" fill-rule="nonzero"></path>
        </g>
    </g>
</svg>