<svg width="1418px" height="265px" viewBox="0 0 1418 265" version="1.1" xmlns="http://www.w3.org/2000/svg" xmlns:xlink="http://www.w3.org/1999/xlink">
    <g>
        <path d="M178.807292,192.984375 L194.041667,200.210938 C186.098958,220.783854 173.859375,236.701823 157.322917,247.964844 C140.786458,259.227865 121.125,264.859375 98.338542,264.859375 C67.479167,264.859375 43.390625,256.428385 26.072917,239.566406 C8.755208,222.704427 0.096354,200.015625 0.096354,171.5 C0.096354,140.770833 10.35026,115.510417 30.858073,95.71875 C51.365885,75.927083 78.546875,66.03125 112.401042,66.03125 C136.75,66.03125 155.369792,70.946615 168.260417,80.777344 C181.151042,90.608073 187.596354,102.489583 187.596354,116.421875 C187.596354,126.578125 184.764323,134.61849 179.10026,140.542969 C173.436198,146.467448 165.981771,149.429688 156.736979,149.429688 C148.664062,149.429688 142.251302,147.11849 137.498698,142.496094 C132.746094,137.873698 130.369792,131.851562 130.369792,124.429688 C130.369792,118.049479 132.973958,110.627604 138.182292,102.164062 C140.395833,98.648438 141.502604,96.174479 141.502604,94.742188 C141.502604,92.138021 139.484375,89.794271 135.447917,87.710938 C129.71875,84.455729 122.231771,82.828125 112.986979,82.828125 C95.799479,82.828125 83.364583,88.296875 75.682292,99.234375 C65.395833,113.6875 60.252604,135.5625 60.252604,164.859375 C60.252604,194.15625 65.363281,214.761719 75.584635,226.675781 C85.80599,238.589844 98.989583,244.546875 115.135417,244.546875 C127.895833,244.546875 139.907552,240.282552 151.170573,231.753906 C162.433594,223.22526 171.645833,210.302083 178.807292,192.984375 Z M305.372396,66.03125 C325.815104,66.03125 344.597656,70.458333 361.720052,79.3125 C378.842448,88.166667 391.570312,99.722656 399.903646,113.980469 C408.236979,128.238281 412.403646,145.393229 412.403646,165.445312 C412.403646,197.476562 401.498698,222.053385 379.688802,239.175781 C357.878906,256.298177 333.171875,264.859375 305.567708,264.859375 C286.036458,264.859375 268.165365,260.464844 251.954427,251.675781 C235.74349,242.886719 223.276042,231.03776 214.552083,216.128906 C205.828125,201.220052 201.466146,184.390625 201.466146,165.640625 C201.466146,137.385417 211.329427,113.720052 231.05599,94.644531 C250.782552,75.56901 275.554687,66.03125 305.372396,66.03125 Z M306.544271,84.585938 C293.002604,84.585938 282.227865,90.542969 274.220052,102.457031 C266.21224,114.371094 262.208333,135.302083 262.208333,165.25 C262.208333,196.369792 266.179687,217.821615 274.122396,229.605469 C282.065104,241.389323 292.807292,247.28125 306.348958,247.28125 C320.151042,247.28125 331.283854,241.226562 339.747396,229.117188 C348.210937,217.007812 352.442708,196.109375 352.442708,166.421875 C352.442708,135.953125 348.276042,114.696615 339.942708,102.652344 C331.609375,90.608073 320.476562,84.585938 306.544271,84.585938 Z M604.9375,192.984375 L620.171875,200.210938 C612.229167,220.783854 599.989583,236.701823 583.453125,247.964844 C566.916667,259.227865 547.255208,264.859375 524.46875,264.859375 C493.609375,264.859375 469.520833,256.428385 452.203125,239.566406 C434.885417,222.704427 426.226562,200.015625 426.226562,171.5 C426.226562,140.770833 436.480469,115.510417 456.988281,95.71875 C477.496094,75.927083 504.677083,66.03125 538.53125,66.03125 C562.880208,66.03125 581.5,70.946615 594.390625,80.777344 C607.28125,90.608073 613.726562,102.489583 613.726562,116.421875 C613.726562,126.578125 610.894531,134.61849 605.230469,140.542969 C599.566406,146.467448 592.111979,149.429688 582.867187,149.429688 C574.794271,149.429688 568.38151,147.11849 563.628906,142.496094 C558.876302,137.873698 556.5,131.851562 556.5,124.429688 C556.5,118.049479 559.104167,110.627604 564.3125,102.164062 C566.526042,98.648438 567.632812,96.174479 567.632812,94.742188 C567.632812,92.138021 565.614583,89.794271 561.578125,87.710938 C555.848958,84.455729 548.361979,82.828125 539.117187,82.828125 C521.929687,82.828125 509.494792,88.296875 501.8125,99.234375 C491.526042,113.6875 486.382812,135.5625 486.382812,164.859375 C486.382812,194.15625 491.49349,214.761719 501.714844,226.675781 C511.936198,238.589844 525.119792,244.546875 541.265625,244.546875 C554.026042,244.546875 566.03776,240.282552 577.300781,231.753906 C588.563802,223.22526 597.776042,210.302083 604.9375,192.984375 Z M839.68229,236.34375 L847.88542,250.40625 C839.94271,255.875 832.8138,259.651042 826.4987,261.734375 C820.18359,263.817708 813.25,264.859375 805.697917,264.859375 C794.5,264.859375 785.450521,262.483073 778.549479,257.730469 C771.648437,252.977865 765.333333,244.026042 759.604167,230.875 C746.322917,244.026042 734.408854,252.977865 723.861979,257.730469 C713.315104,262.483073 701.401042,264.859375 688.119792,264.859375 C669.760417,264.859375 655.4375,260.627604 645.151042,252.164062 C634.864583,243.700521 629.721354,232.958333 629.721354,219.9375 C629.721354,200.276042 639.226562,184.520833 658.236979,172.671875 C673.471354,163.296875 706.869792,153.921875 758.432292,144.546875 L758.432292,118.179688 C758.432292,107.763021 754.981771,99.266927 748.080729,92.691406 C741.179687,86.115885 731.934896,82.828125 720.346354,82.828125 C711.492187,82.828125 703.679687,84.716146 696.908854,88.492188 C692.351562,90.966146 690.072917,93.440104 690.072917,95.914062 C690.072917,97.216146 690.919271,99.169271 692.611979,101.773438 C696.257812,107.632812 698.080729,113.427083 698.080729,119.15625 C698.080729,126.447917 695.671875,132.339844 690.854167,136.832031 C686.036458,141.324219 679.591146,143.570312 671.518229,143.570312 C662.924479,143.570312 656.023437,141.128906 650.815104,136.246094 C645.606771,131.363281 643.002604,125.080729 643.002604,117.398438 C643.002604,104.768229 649.838542,93.635417 663.510417,84 C680.567708,72.020833 701.791667,66.03125 727.182292,66.03125 C746.322917,66.03125 763.315104,69.026042 778.158854,75.015625 C787.664062,78.791667 795.378906,85.39974 801.303385,94.839844 C807.227865,104.279948 810.190104,115.901042 810.190104,129.703125 L810.190104,222.476562 C810.190104,229.507812 811.492187,234.585938 814.096354,237.710938 C816.700521,240.835938 820.28125,242.398438 824.83854,242.398438 C828.61458,242.398438 833.5625,240.380208 839.68229,236.34375 Z M758.432292,161.539062 C730.567708,165.315104 711.720052,171.141927 701.889323,179.019531 C692.058594,186.897135 687.143229,197.28125 687.143229,210.171875 C687.143229,219.286458 689.454427,226.285156 694.076823,231.167969 C698.699219,236.050781 705.177083,238.492188 713.510417,238.492188 C726.401042,238.492188 737.110677,233.869792 745.639323,224.625 C754.167969,215.380208 758.432292,202.75 758.432292,186.734375 L758.432292,161.539062 Z M983.72396,240.835938 L983.72396,259 L855.98958,259 L855.98958,240.835938 L871.8099,240.835938 C878.32031,240.835938 883.07292,239.566406 886.06771,237.027344 C889.0625,234.488281 890.5599,231.070312 890.5599,226.773438 L890.5599,118.570312 C890.5599,109.846354 888.57422,103.466146 884.60286,99.429688 C880.63151,95.393229 875.0651,93.375 867.90365,93.375 L857.55208,93.375 L857.55208,76.1875 L935.67708,72.085938 L935.67708,131.65625 C940.23437,111.734375 948.17708,96.434896 959.50521,85.757812 C970.83333,75.080729 983.59375,69.742188 997.78646,69.742188 C1009.89583,69.742188 1019.46615,72.964844 1026.4974,79.410156 C1033.52865,85.855469 1037.04427,94.15625 1037.04427,104.3125 C1037.04427,113.036458 1034.60286,120.10026 1029.72005,125.503906 C1024.83724,130.907552 1018.88021,133.609375 1011.84896,133.609375 C1005.59896,133.609375 1000.22786,131.265625 995.73568,126.578125 C991.24349,121.890625 988.9974,115.901042 988.9974,108.609375 C988.9974,104.572917 990.10417,100.341146 992.31771,95.914062 C993.48958,93.440104 994.07552,91.682292 994.07552,90.640625 C994.07552,88.817708 993.65234,87.483073 992.80599,86.636719 C991.95964,85.790365 990.625,85.367188 988.80208,85.367188 C984.11458,85.367188 978.97135,88.101562 973.3724,93.570312 C964.77865,102.033854 957.55208,115.217448 951.69271,133.121094 C945.83333,151.02474 942.90365,169.091146 942.90365,187.320312 L942.90365,226.773438 C942.90365,231.330729 944.14062,234.813802 946.61458,237.222656 C949.08854,239.63151 952.53906,240.835938 956.96615,240.835938 L983.72396,240.835938 Z M1111.86719,0.992188 L1129.44531,0.992188 L1129.44531,76.1875 L1189.79687,76.1875 L1189.79687,97.28125 L1129.44531,97.28125 L1129.44531,213.492188 C1129.44531,221.174479 1131.39844,227.13151 1135.30469,231.363281 C1139.21094,235.595052 1144.35417,237.710938 1150.73437,237.710938 C1168.96354,237.710938 1178.59896,220.71875 1179.64062,186.734375 L1197.21875,186.734375 C1196.82812,204.833333 1193.96354,219.384115 1188.625,230.386719 C1183.28646,241.389323 1175.63672,249.885417 1165.67578,255.875 C1155.71484,261.864583 1144.48437,264.859375 1131.98437,264.859375 C1121.04687,264.859375 1111.57422,262.645833 1103.56641,258.21875 C1095.55859,253.791667 1089.17839,247.183594 1084.42578,238.394531 C1079.67318,229.605469 1077.29687,220.067708 1077.29687,209.78125 L1077.29687,97.28125 L1044.875,97.28125 L1044.875,79.3125 C1064.66667,76.708333 1080.09635,69.091146 1091.16406,56.460938 C1102.23177,43.830729 1109.13281,25.341146 1111.86719,0.992188 Z M1310.76823,66.03125 C1331.21094,66.03125 1349.99349,70.458333 1367.11589,79.3125 C1384.23828,88.166667 1396.96615,99.722656 1405.29948,113.980469 C1413.63281,128.238281 1417.79948,145.393229 1417.79948,165.445312 C1417.79948,197.476562 1406.89453,222.053385 1385.08464,239.175781 C1363.27474,256.298177 1338.56771,264.859375 1310.96354,264.859375 C1291.43229,264.859375 1273.5612,260.464844 1257.35026,251.675781 C1241.13932,242.886719 1228.67187,231.03776 1219.94792,216.128906 C1211.22396,201.220052 1206.86198,184.390625 1206.86198,165.640625 C1206.86198,137.385417 1216.72526,113.720052 1236.45182,94.644531 C1256.17839,75.56901 1280.95052,66.03125 1310.76823,66.03125 Z M1311.9401,84.585938 C1298.39844,84.585938 1287.6237,90.542969 1279.61589,102.457031 C1271.60807,114.371094 1267.60417,135.302083 1267.60417,165.25 C1267.60417,196.369792 1271.57552,217.821615 1279.51823,229.605469 C1287.46094,241.389323 1298.20312,247.28125 1311.74479,247.28125 C1325.54687,247.28125 1336.67969,241.226562 1345.14323,229.117188 C1353.60677,217.007812 1357.83854,196.109375 1357.83854,166.421875 C1357.83854,135.953125 1353.67187,114.696615 1345.33854,102.652344 C1337.00521,90.608073 1325.8724,84.585938 1311.9401,84.585938 Z"></path>
    </g>
</svg>
