<?xml version="1.0" encoding="UTF-8"?>
<svg width="300px" height="300px" viewBox="0 0 300 300" version="1.1" xmlns="http://www.w3.org/2000/svg" xmlns:xlink="http://www.w3.org/1999/xlink">
    <title>Logotype-path</title>
    <g id="Page-1" stroke="none" stroke-width="1" fill="none" fill-rule="evenodd">
        <path d="M231.710938,177.953125 L246.945313,185.179688 C239.002604,205.752604 226.763021,221.670573 210.226563,232.933594 C193.690104,244.196615 174.028646,249.828125 151.242188,249.828125 C120.382813,249.828125 96.294271,241.397135 78.976563,224.535156 C61.658854,207.673177 53,184.984375 53,156.46875 C53,125.739583 63.253906,100.479167 83.761719,80.6875 C104.269531,60.895833 131.450521,51 165.304688,51 C189.653646,51 208.273438,55.915365 221.164063,65.746094 C234.054688,75.576823 240.5,87.458333 240.5,101.390625 C240.5,111.546875 237.667969,119.58724 232.003906,125.511719 C226.339844,131.436198 218.885417,134.398438 209.640625,134.398438 C201.567708,134.398438 195.154948,132.08724 190.402344,127.464844 C185.64974,122.842448 183.273438,116.820312 183.273438,109.398438 C183.273438,103.018229 185.877604,95.596354 191.085938,87.132812 C193.299479,83.617188 194.40625,81.143229 194.40625,79.710938 C194.40625,77.106771 192.388021,74.763021 188.351563,72.679688 C182.622396,69.424479 175.135417,67.796875 165.890625,67.796875 C148.703125,67.796875 136.268229,73.265625 128.585938,84.203125 C118.299479,98.65625 113.15625,120.53125 113.15625,149.828125 C113.15625,179.125 118.266927,199.730469 128.488281,211.644531 C138.709636,223.558594 151.893229,229.515625 168.039063,229.515625 C180.799479,229.515625 192.811198,225.251302 204.074219,216.722656 C215.33724,208.19401 224.549479,195.270833 231.710938,177.953125 Z" id="Logotype-path" fill="#4D7A5D" fill-rule="nonzero"></path>
    </g>
</svg>