<svg viewBox="0 0 16 16" xmlns="http://www.w3.org/2000/svg"><path d="m13 6-.901 8.11a1 1 0 0 1-.994.89h-6.21a1 1 0 0 1-.994-.89L3 6h10ZM8 8a.5.5 0 0 0-.492.41L7.5 8.5v4a.5.5 0 0 0 .992.09l.008-.09v-4A.5.5 0 0 0 8 8Zm2.685.018a.5.5 0 0 0-.444.355l-.018.089-.441 3.972-.002.09a.5.5 0 0 0 .978.109l.018-.088.441-3.973.002-.09a.5.5 0 0 0-.355-.444l-.088-.018-.09-.002Zm-5.371 0-.09.002-.089.018a.5.5 0 0 0-.341.357l-.014.087.002.09.441 3.973.018.088a.5.5 0 0 0 .964-.022l.014-.087-.002-.09-.441-3.972-.018-.089a.5.5 0 0 0-.444-.355ZM9 1a2 2 0 0 1 2 2h1a2 2 0 0 1 2 2v.5H2V5a2 2 0 0 1 2-2h1a2 2 0 0 1 2-2h2Zm0 1H7a1 1 0 0 0-.993.883L6 3h4a1 1 0 0 0-.883-.993L9 2Z" fill="#fbc5c9" fill-rule="evenodd"/></svg>