<?xml version="1.0" encoding="UTF-8"?>
<svg width="24px" height="24px" viewBox="0 0 24 24" version="1.1" xmlns="http://www.w3.org/2000/svg" xmlns:xlink="http://www.w3.org/1999/xlink">
    <g stroke="currentColor" stroke-width="2" fill="none">
        <path d="M13.1406685,5.35075673 L11.9800914,6.51133385 L9.79143035,8.69999489 L7.29589356,11.1955317 L4.80325182,13.6881734 L2.63775122,15.853674 L0.540253213,18.0007346 C0.520522975,18.5138914 0.528222142,19.0272001 0.535671111,19.5394738 C0.539100845,19.7753402 0.542517913,20.0109937 0.543422116,20.2460866 C0.543425814,20.7399232 0.544149397,21.2311133 0.544872799,21.7223034 C0.545470355,22.1280437 0.552787293,22.5325517 0.949133418,23.4535227 C1.59162555,23.4537394 2.23417247,23.454097 2.87671939,23.4565779 C3.36864063,23.4565742 3.86176824,23.4572981 4.35489585,23.4580223 C4.80142849,23.458678 5.2472335,23.4538365 6.47381253,23.0376573 L7.70917279,21.802297 L9.75018605,19.7612838 L10.9708133,18.5406565 L12.1936119,17.3178579 L14.7180992,14.7933706 L17.0051921,12.5062777 L18.5887868,10.8018043 L14.8367964,7.04981395 C14.7009748,6.91399233 14.5648323,6.7781708 14.4285827,6.64224233 C14.1549272,6.36923175 13.8808423,6.0957901 13.6080463,5.82105943 C13.469086,5.68210351 13.3288852,5.54188952 13.1406685,5.35075673 Z"></path>
        <path d="M17.8375812,0.685944661 C17.6590366,0.810325637 17.5056295,0.972810966 17.2140212,1.2687001 L16.0910685,2.39167161 C15.8619862,2.62075384 15.6321796,2.84911172 15.0699495,3.40795732 L20.5809409,8.91894871 L23.1737977,6.32609193 C23.3857527,6.09617106 23.4841809,5.80356964 23.4376553,5.48304545 C23.3857803,5.12566824 23.1703132,4.74801225 22.7944171,4.37100443 L19.8130048,1.39023492 C19.6477208,1.22559699 19.4813539,1.05987196 18.9612529,0.628886496 C18.609646,0.469065142 18.1676569,0.457119226 17.8375812,0.685944661 Z"></path>
    </g>
</svg>
