<svg width="24px" height="24px" viewBox="0 0 24 24" version="1.1" xmlns="http://www.w3.org/2000/svg" xmlns:xlink="http://www.w3.org/1999/xlink">
  <path d="M22,20 L20.56,20 C20.4167008,20.0083081 20.2750618,19.9658164 20.16,19.88 C20.0594721,19.7967112 19.980565,19.6903581 19.93,19.57 L19,17 L14,17 L13,19.54 C12.9522893,19.6564785 12.8767514,19.7594847 12.78,19.84 C12.6686066,19.9345949 12.5260705,19.9844826 12.38,19.98 L11,19.98 L15.55,8.51 L17.44,8.51 L22,20 Z M18.47,15.69 L16.89,11.5 C16.7369647,11.0942674 16.6067611,10.6802865 16.5,10.26 C16.44,10.5066667 16.3766667,10.7366667 16.31,10.95 L16.12,11.51 L14.54,15.7 L18.47,15.69 Z M12.17,14.11 C11.1467517,13.7589174 10.1696711,13.2854866 9.26,12.7 C10.6616037,11.1946079 11.6322158,9.33973718 12.07,7.33 L14,7.33 L14,6 L9.31,6 C9.25731989,5.80862966 9.19046854,5.6214459 9.11,5.44 C8.87,4.79 8.6,4 8.6,4 L7.13,4.5 C7.13,4.5 7.53,5.39 7.73,6 L2,6 L2,7.33 L4.15,7.33 C4.5882022,9.347989 5.57434023,11.2060807 7,12.7 C5.45494529,13.6601466 3.76728167,14.3689653 2,14.8 C2.37333333,15.3466667 2.66333333,15.8066667 2.87,16.18 C4.70770345,15.5638972 6.46127241,14.720706 8.09,13.67 C9.19653967,14.4090391 10.3928697,15.0038437 11.65,15.44 L12.17,14.11 Z M5.63,7.33 L10.54,7.33 C10.2209506,9.03742629 9.36213909,10.5973085 8.09,11.78 C6.86427262,10.5602073 6.01103387,9.01674691 5.63,7.33 Z" id="Shape"></path>
</svg>
