<svg viewBox="0 0 84 96" width="84" height="96" xmlns="http://www.w3.org/2000/svg"><g fill="none" fill-rule="evenodd"><path d="m40.796 33.21 31.694 6.339a2.5 2.5 0 0 1-.818 4.93l-.162-.028-28.307-5.661-9.368 14.992L15.387 66.08a2.5 2.5 0 0 1-2.913-4.06l.14-.1 17.552-11.703 10.63-17.007Z" fill-opacity=".16" fill="currentColor" fill-rule="nonzero"/><path d="m31.635 51.641 10.124-16.2L72.1 41.51a.5.5 0 0 1-.107.99l-.09-.01-29.663-5.932-9.815 15.707-.147.151-18 12a.5.5 0 0 1-.625-.775l.07-.057 17.913-11.943Z" fill="currentColor" fill-rule="nonzero"/></g></svg>
