<svg width="24px" height="24px" viewBox="0 0 24 24" version="1.1" xmlns="http://www.w3.org/2000/svg" xmlns:xlink="http://www.w3.org/1999/xlink">
    <g stroke="none" stroke-width="1" fill="none" fill-rule="evenodd">
        <path d="M12,1 C15.3137085,1 18,3.6862915 18,7 L18,10 C19.1045695,10 20,10.8954305 20,12 L20,21 C20,22.1045695 19.1045695,23 18,23 L6,23 C4.8954305,23 4,22.1045695 4,21 L4,12 C4,10.8954305 4.8954305,10 6,10 L6,7 L6.00413847,6.77506174 C6.12242824,3.56557489 8.76160306,1 12,1 Z M17.5,19 L6.5,19 C6.22385763,19 6,19.2238576 6,19.5 C6,19.7761424 6.22385763,20 6.5,20 L17.5,20 C17.7761424,20 18,19.7761424 18,19.5 C18,19.2238576 17.7761424,19 17.5,19 Z M17.5,16 L6.5,16 C6.22385763,16 6,16.2238576 6,16.5 C6,16.7761424 6.22385763,17 6.5,17 L17.5,17 C17.7761424,17 18,16.7761424 18,16.5 C18,16.2238576 17.7761424,16 17.5,16 Z M17.5,13 L6.5,13 C6.22385763,13 6,13.2238576 6,13.5 C6,13.7761424 6.22385763,14 6.5,14 L17.5,14 C17.7761424,14 18,13.7761424 18,13.5 C18,13.2238576 17.7761424,13 17.5,13 Z M12,2 C9.30851133,2 7.10226679,4.13102566 7.00396927,6.79345688 L7,7 L7,10 L8,10 L8.00022867,6.97861581 L8.00432152,6.79308745 C8.08247888,4.69125832 9.8606897,3 12,3 L12.0288789,3.00041708 L12.2341171,3.00676708 C14.3435937,3.12899296 16,4.87822792 16,7 L16,10 L17,10 L17,7 C17,4.3112453 14.8776933,2.11818189 12.2168896,2.00461951 L12,2 Z M12,4 C10.3853706,4 9.06131792,5.27891094 9.00363086,6.83024717 L9,7 L9,10 L15,10 L15,7 C15,5.40231912 13.75108,4.09633912 12.1762728,4.00509269 L12,4 Z" id="Combined-Shape" fill="#000000" fill-rule="nonzero"></path>
    </g>
</svg>
