<svg width="24px" height="24px" viewBox="0 0 24 24" version="1.1" xmlns="http://www.w3.org/2000/svg" xmlns:xlink="http://www.w3.org/1999/xlink">
    <g stroke="none" stroke-width="1" fill="none" fill-rule="evenodd">
        <path d="M12,0 C15.3137085,0 18,2.6862915 18,6 L18,11 C19.1045695,11 20,11.8954305 20,13 L20,22 C20,23.1045695 19.1045695,24 18,24 L6,24 C4.8954305,24 4,23.1045695 4,22 L4,13 C4,11.8954305 4.8954305,11 6,11 L15,11 L15,6 C15,4.40231912 13.75108,3.09633912 12.1762728,3.00509269 L12,3 C10.3853706,3 9.06131792,4.27891094 9.00363086,5.83024717 L9,6 L9,6.5 C9,7.32842712 8.32842712,8 7.5,8 C6.67157288,8 6,7.32842712 6,6.5 L6,6 L6.00413847,5.77506174 C6.12242824,2.56557489 8.76160306,0 12,0 Z M17.5,20 L6.5,20 C6.22385763,20 6,20.2238576 6,20.5 C6,20.7761424 6.22385763,21 6.5,21 L17.5,21 C17.7761424,21 18,20.7761424 18,20.5 C18,20.2238576 17.7761424,20 17.5,20 Z M17.5,17 L6.5,17 C6.22385763,17 6,17.2238576 6,17.5 C6,17.7761424 6.22385763,18 6.5,18 L17.5,18 C17.7761424,18 18,17.7761424 18,17.5 C18,17.2238576 17.7761424,17 17.5,17 Z M17.5,14 L6.5,14 C6.22385763,14 6,14.2238576 6,14.5 C6,14.7761424 6.22385763,15 6.5,15 L17.5,15 C17.7761424,15 18,14.7761424 18,14.5 C18,14.2238576 17.7761424,14 17.5,14 Z M12,1 C9.30851133,1 7.10226679,3.13102566 7.00396927,5.79345688 L7,6 L7,6.5 C7,6.77614237 7.22385763,7 7.5,7 C7.77616048,7 8.00005011,6.77616049 8.00011194,6.50000001 L8.00022867,5.97861581 L8.00432152,5.79308745 C8.08247888,3.69125832 9.8606897,2 12.0288789,2.00041708 L12.2341171,2.00676708 C14.3435937,2.12899296 16,3.87822792 16,6 L16,11 L17,11 L17,6 C17,3.3112453 14.8776933,1.11818189 12.2168896,1.00461951 L12,1 Z" id="Combined-Shape" fill="#000000" fill-rule="nonzero"></path>
    </g>
</svg>
