<svg xmlns="http://www.w3.org/2000/svg" viewBox="0 0 496 496" >
  <path d="m460 208-24 32h-23.68l-48 56H344v-28.528l-15.68-9.408 31.144-44.496C375.512 190.64 384 163.72 384 135.736 384 60.888 323.112 0 247.736 0 172.888 0 112 60.888 112 135.736c0 26.784 7.848 52.544 22.584 74.808l-68.52-18.272L35.72 192 0 245.576v127.576l88 40v20.976L123.36 496h126.856l40-24H312v-24h5.576l72 48H424v-41.888l-15.36-30.728L413.768 408h29.544L472 379.312v-80.648l24-32V208h-36zm-332-72.264C128 69.712 181.712 16 248.264 16 314.288 16 368 69.712 368 135.736c0 24.688-7.488 48.432-21.648 68.664l-79.736 113.904A22.738 22.738 0 0 1 248 328a22.763 22.763 0 0 1-18.624-9.696L149.648 204.4C135.488 184.168 128 160.424 128 135.736zM200 480h-67.36L104 429.872v-27.024l-88-40V328h132.368L200 387.008V480zm-44.368-168H16v-61.576L44.28 208h18.672l85.672 22.848 67.64 96.632A38.788 38.788 0 0 0 248 344a38.763 38.763 0 0 0 31.728-16.52l39.392-56.272 8.88 5.32V376H211.632l-56-64zM480 261.336l-24 32v79.352L436.688 392h-34.456l-10.872 32.616L408 457.888V480h-13.576l-72-48H296v24h-10.216l-40 24H216v-88h128v-80h27.68l48-56H444l24-32h12v37.336z" fill="currentColor"/><path d="M248 240c57.344 0 104-46.656 104-104S305.344 32 248 32 144 78.656 144 136s46.656 104 104 104zm0-192c48.52 0 88 39.48 88 88s-39.48 88-88 88-88-39.48-88-88 39.48-88 88-88z"/>
</svg>
