<svg viewBox="0 0 84 96" width="84" height="96" xmlns="http://www.w3.org/2000/svg"><g fill="none" fill-rule="evenodd"><path fill-opacity=".104" fill="currentColor" d="m18 38 17-12 25 6 7 31-20 13-12-18-17-6z"/><path d="m61.677 30.346-27.09-6.502L16 36.964v16.451l17.704 6.248 12.728 19.091 22.826-14.836-7.581-33.572ZM35 26l25 6 7 31-20 13-12-18-17-6V38l17-12Z" fill-opacity=".16" fill="currentColor" fill-rule="nonzero"/><path d="m35 26 25 6 7 31-20 13-12-18-17-6V38l17-12Zm.31 1.617L19.5 38.777v12.161l16.47 5.814 11.456 17.182 17.88-11.623-6.564-29.071-23.432-5.623Z" fill="#FFFEFA" fill-rule="nonzero"/><path d="m60.42 31.586-25.523-6.125L17.5 37.741v14.613l17.175 6.061 12.183 18.274 20.706-13.46-7.145-31.643ZM35.102 26.54l24.478 5.874 6.854 30.357-19.293 12.54-11.818-17.726L18.5 51.646V38.258l16.603-11.719Z" fill="currentColor" fill-rule="nonzero"/></g></svg>
