<?xml version="1.0" encoding="UTF-8"?>
<svg width="24px" height="24px" viewBox="0 0 24 24" version="1.1" xmlns="http://www.w3.org/2000/svg" xmlns:xlink="http://www.w3.org/1999/xlink">
    <path d="M19,8 L17.7043175,19.2292482 C17.5878736,20.2384285 16.7333756,21 15.7174996,21 L8.28250036,21 C7.26662437,21 6.41212637,20.2384285 6.29568249,19.2292482 L5,8 L19,8 Z M12,10.5 C11.6203042,10.5 11.306509,10.7821539 11.2568466,11.1482294 L11.25,11.25 L11.25,17.75 C11.25,18.1642136 11.5857864,18.5 12,18.5 C12.3796958,18.5 12.693491,18.2178461 12.7431534,17.8517706 L12.75,17.75 L12.75,11.25 C12.75,10.8357864 12.4142136,10.5 12,10.5 Z M8.35830222,10.4633175 L8.25632221,10.4653668 C7.8780713,10.4984595 7.59006152,10.8068887 7.57249367,11.1758996 L7.57454299,11.2778796 L8.14105532,17.7531452 C8.17715641,18.1657825 8.5409308,18.4710255 8.95356815,18.4349244 C9.33181906,18.4018317 9.61982884,18.0934025 9.63739669,17.7243916 L9.63534737,17.6224116 L9.06883504,11.147146 C9.0387508,10.8032816 8.78111566,10.5339965 8.45727818,10.4746785 L8.35830222,10.4633175 Z M14.9468554,11.0463595 L14.931165,11.147146 L14.3646526,17.6224116 C14.3285515,18.0350489 14.6337945,18.3988233 15.0464318,18.4349244 C15.4246828,18.4680171 15.7618752,18.2142859 15.8432542,17.8539317 L15.8589447,17.7531452 L16.425457,11.2778796 C16.4615581,10.8652423 16.1563151,10.5014679 15.7436778,10.4653668 C15.3998133,10.4352826 15.0898815,10.6422428 14.9752308,10.95086 L14.9468554,11.0463595 Z M14,2 C15.1045695,2 16,2.8954305 16,4 L17.5,4 C18.8807119,4 20,5.11928813 20,6.5 L20,7 L4,7 L4,6.5 C4,5.11928813 5.11928813,4 6.5,4 L8,4 C8,2.8954305 8.8954305,2 10,2 L14,2 Z M14,3 L10,3 C9.48716416,3 9.06449284,3.38604019 9.00672773,3.88337887 L9,4 L15,4 L14.9932723,3.88337887 C14.9355072,3.38604019 14.5128358,3 14,3 Z" id="Shape"></path>
</svg>
