<svg viewBox="0 0 84 96" width="84" height="96" xmlns="http://www.w3.org/2000/svg"><path d="M18 38c2.154-7.303 6.973-11.638 14.457-13.003a57.006 57.006 0 0 0 4.806 6.266c0 5.19 2.725 6.55 8.175 4.08 6.138 0 9.207-2.655 9.207-7.963 2.29-1.6 5.39-.984 9.301 1.847-.05 8.732-1.583 14.913-4.6 18.544 1.603 5.704 4.219 9.044 7.848 10.019 1.227 4.257.606 6.985-1.863 8.184-2.47 1.198-5.212.767-8.228-1.294l-4.055 5.568c-7.968-5.073-12.741-7.609-14.32-7.609-7.165 1.459-10.36 3.995-9.584 7.609-2.687.847-5.324-.118-7.913-2.895C20.17 60.04 22.591 57.92 18 52c5.14-4.23 2.51-9.91 0-14Z" fill-opacity=".104" fill="currentColor"/><path d="m34.126 23.895-.729-1.103-1.3.237c-8.226 1.502-13.647 6.378-16.015 14.405l-.252.854.465.758.356.59c2.918 4.956 3.224 8.231.078 10.82l-1.5 1.234 1.19 1.536c1.587 2.045 2.248 3.53 2.452 5.17l.03.262.023.262.017.274.011.296.006.33-.003.813-.021 1.261-.009.88c-.005 1.68.063 2.921.272 4.471l.145 1.014.426.457c3.074 3.298 6.477 4.543 9.977 3.439l1.736-.548-.382-1.779-.024-.127c-.32-1.93 1.6-3.573 6.64-4.79l.691-.16.45-.096.047.01c.11.026.255.071.432.135l.29.11.335.138.38.166.65.302.484.236.522.264.557.291.627.338.664.367.7.396.738.424.773.454.81.482.847.51 1.339.821 1.42.886 1.503.95 1.584 1.008 4.085-5.608.21.109c2.907 1.452 5.733 1.6 8.35.329 3.526-1.711 4.378-5.454 2.913-10.537l-.313-1.084-1.09-.293-.223-.065c-2.507-.777-4.482-3.172-5.866-7.402l-.07-.217.17-.242c2.806-4.11 4.175-10.34 4.222-18.695l.006-1.028-.833-.603c-4.523-3.275-8.48-4.06-11.62-1.866l-.854.597v1.042c0 4.051-2.03 5.888-6.905 5.96l-.734.002-.63.285-.452.195-.426.174-.401.152-.378.131c-.243.08-.471.145-.684.195l-.309.064c-1.487.264-2.161-.317-2.38-1.847l-.037-.318-.026-.344a11.04 11.04 0 0 1-.01-.182l-.01-.383v-.956l-.5-.567a55.007 55.007 0 0 1-4.637-6.046Zm-1.67 1.102a57.006 57.006 0 0 0 4.807 6.266c0 5.19 2.725 6.55 8.175 4.08 6.138 0 9.207-2.655 9.207-7.963 2.29-1.6 5.39-.984 9.301 1.847-.05 8.732-1.583 14.913-4.6 18.544 1.603 5.704 4.219 9.044 7.848 10.019 1.227 4.257.606 6.985-1.863 8.184-2.47 1.198-5.212.767-8.228-1.294l-4.055 5.568-1.688-1.067-1.586-.986-1.124-.686-.717-.433-1.028-.611-.971-.566-.616-.352-.59-.332-.565-.312-.8-.43-.744-.385-.463-.231-.439-.212-.413-.19-.387-.172-.363-.15-.337-.132-.311-.11a8.416 8.416 0 0 0-.147-.048l-.273-.08a5.241 5.241 0 0 0-.128-.033l-.235-.05a2.254 2.254 0 0 0-.395-.04c-.652.132-1.27.273-1.856.424l-.687.184c-5.371 1.513-7.718 3.846-7.041 7-2.687.847-5.324-.118-7.913-2.895a29.046 29.046 0 0 1-.255-2.517l-.03-.644-.016-.616-.004-.298-.002-.577.006-.554.029-1.8v-.484l-.01-.474C20.875 57.112 20.378 55.066 18 52c3.59-2.954 3.39-6.616 2.087-9.949l-.184-.452-.097-.225-.202-.445-.211-.44-.22-.433-.227-.427-.233-.42-.236-.412-.238-.403L18 38c2.154-7.303 6.973-11.638 14.457-13.003Z" fill-opacity=".16" fill="currentColor" fill-rule="nonzero"/><path d="M32.457 24.997a57.006 57.006 0 0 0 4.806 6.266c0 5.19 2.725 6.55 8.175 4.08 6.138 0 9.207-2.655 9.207-7.963 2.29-1.6 5.39-.984 9.301 1.847-.05 8.732-1.583 14.913-4.6 18.544 1.603 5.704 4.219 9.044 7.848 10.019 1.227 4.257.606 6.985-1.863 8.184-2.47 1.198-5.212.767-8.228-1.294l-4.055 5.568-1.688-1.067-1.586-.986-1.124-.686-.717-.433-1.028-.611-.971-.566-.616-.352-.59-.332-.565-.312-.8-.43-.744-.385-.463-.231-.439-.212-.413-.19-.387-.172-.363-.15-.337-.132-.311-.11a8.416 8.416 0 0 0-.147-.048l-.273-.08a5.241 5.241 0 0 0-.128-.033l-.235-.05a2.254 2.254 0 0 0-.395-.04c-.652.132-1.27.273-1.856.424l-.687.184c-5.371 1.513-7.718 3.846-7.041 7-2.687.847-5.324-.118-7.913-2.895a29.046 29.046 0 0 1-.255-2.517l-.03-.644-.016-.616-.004-.298-.002-.577.006-.554.029-1.8v-.484l-.01-.474C20.875 57.112 20.378 55.066 18 52c3.59-2.954 3.39-6.616 2.087-9.949l-.184-.452-.097-.225-.202-.445-.211-.44-.22-.433-.227-.427-.233-.42-.236-.412-.238-.403L18 38c2.154-7.303 6.973-11.638 14.457-13.003Zm-.684 1.67-.199.046c-6.01 1.418-9.93 5.03-11.9 10.958l-.042.132.028.047c3.4 5.777 4.094 10.435.408 14.28l-.066.066.149.218c1.23 1.837 1.884 3.476 2.15 5.236l.043.312.04.338.03.328.021.334.015.351.008.384v.665l-.029 1.931-.004.73.007.674.018.631c.024.616.067 1.195.136 1.807l.064.529.137.137c1.595 1.566 3.112 2.284 4.617 2.24l.117-.008.001-.052c.104-3.751 3.805-6.298 10.516-7.73l.538-.112h.152c.216 0 .463.03.744.088l.29.068.314.088.335.108.176.06.37.138.391.157.415.178.438.197.227.106.473.227.497.248.521.268.545.288.864.47.606.34.957.547 1.013.594.708.421.734.443 1.546.948 1.229.766.542.341 4.085-5.608 1.201.822c2.604 1.78 4.79 2.123 6.727 1.182 1.53-.742 2.036-2.443 1.32-5.494l-.04-.162-.272-.104c-3.538-1.428-6.078-4.904-7.662-10.271l-.12-.417-.214-.758.504-.606c2.629-3.163 4.075-8.66 4.24-16.486l.004-.325-.235-.157c-2.533-1.664-4.484-2.15-5.939-1.627l-.145.055v.015c-.346 5.405-3.845 8.345-9.997 8.544l-.359.008-.268.115c-5.759 2.406-9.384.673-9.707-4.86l-.012-.259-.313-.361a58.928 58.928 0 0 1-3.126-4.004l-.562-.803Z" fill="#FFFEFA" fill-rule="nonzero"/><path d="m32.874 24.721-.182-.276-.325.06c-7.53 1.374-12.457 5.708-14.723 12.948l-.187.619.117.19c.378.615.722 1.213 1.031 1.793l.297.574c2.329 4.64 2.254 8.127-1.22 10.985l-.375.309.298.383c1.744 2.25 2.515 3.983 2.755 5.904l.033.295.027.29.019.3.012.319.008.547-.004.664-.021 1.285-.008.852c-.006 1.623.058 2.808.258 4.286l.075.531.107.114c2.71 2.908 5.538 3.943 8.428 3.031l.434-.136-.096-.445-.034-.177c-.523-2.98 2.103-5.191 8.117-6.595l.738-.164.32-.067h-.045c.078 0 .166.007.264.022l.209.04.115.028.248.07.275.09.147.053.314.12.34.14.366.16.597.279.43.21.457.23.732.382.79.426.845.472 1.217.697.978.575 1.034.619 1.09.663 1.146.707 1.614 1.011 1.24.788 4.05-5.562.202.129c2.923 1.81 5.645 2.136 8.12.934 2.734-1.326 3.413-4.308 2.126-8.771l-.078-.272-.272-.073-.256-.073c-3.216-.985-5.595-4.025-7.122-9.187l-.048-.164.237-.306c2.771-3.7 4.196-9.62 4.306-17.762l.007-.842-.209-.151c-4.064-2.942-7.378-3.6-9.88-1.851l-.214.149v.26c0 5.015-2.83 7.462-8.707 7.462l-.206.045c-5.055 2.292-7.388 1.21-7.467-3.379l-.002-.434-.125-.141a56.506 56.506 0 0 1-4.764-6.212Zm-.648.828.36.536a57.478 57.478 0 0 0 3.636 4.74l.542.626.001.08c.096 5.191 3.014 6.735 8.33 4.506l.45-.196.227-.001c5.96-.095 9.141-2.756 9.36-7.88l.009-.308.134-.08c1.93-1.098 4.504-.583 7.767 1.632l.401.278-.012.877c-.17 8.027-1.671 13.725-4.47 17.092l-.168.202.188.658c1.578 5.346 4.091 8.633 7.556 9.802l.25.081.1.378c.928 3.67.311 5.94-1.775 6.952-2.292 1.112-4.848.71-7.727-1.257l-.4-.273-4.065 5.579-1.287-.811-1.196-.745-1.14-.701-.728-.442-1.046-.626-.99-.581-.934-.537-.592-.333-.842-.463-.53-.283-.507-.264-.482-.244-.458-.225-.434-.205-.41-.185-.385-.166-.362-.146-.338-.127-.314-.107a7.766 7.766 0 0 0-.29-.087l-.268-.068a4.25 4.25 0 0 0-.243-.049l-.22-.03a2.121 2.121 0 0 0-.196-.009l-.1.01-.386.08c-6.753 1.441-10.062 3.93-9.687 7.506l.019.151-.061.015c-2.239.512-4.45-.35-6.677-2.639l-.132-.138-.074-.56c-.1-.81-.158-1.543-.185-2.344l-.016-.707a46.225 46.225 0 0 1-.003-.76l.008-.833.018-1.037.007-.737-.001-.414-.007-.368-.014-.336-.02-.316-.029-.31-.036-.316-.042-.3c-.273-1.792-.99-3.454-2.414-5.424l-.213-.29.08-.07c3.564-3.23 3.457-7.138.885-12.111l-.32-.602-.344-.612-.366-.623-.075-.123-.063.21c2.023-6.858 6.426-11.006 13.266-12.493l.48-.099Z" fill="currentColor" fill-rule="nonzero"/></g></svg>
