<?xml version="1.0" standalone="no"?>
<!DOCTYPE svg PUBLIC "-//W3C//DTD SVG 20010904//EN"
 "http://www.w3.org/TR/2001/REC-SVG-20010904/DTD/svg10.dtd">
<svg version="1.0" xmlns="http://www.w3.org/2000/svg"
 width="700.000000pt" height="700.000000pt" viewBox="0 0 700.000000 700.000000"
 preserveAspectRatio="xMidYMid meet">
<metadata>
Created by potrace 1.14, written by Peter Selinger 2001-2017
</metadata>
<g transform="translate(0.000000,700.000000) scale(0.100000,-0.100000)"
fill="#000000" stroke="none">
<path d="M3639 5806 c-2 -2 -47 -7 -99 -10 -77 -6 -278 -33 -374 -52 -58 -11
-234 -60 -321 -89 -499 -166 -926 -494 -1227 -942 -136 -202 -285 -562 -323
-778 -2 -16 -7 -39 -9 -50 -2 -11 -7 -40 -11 -65 -4 -25 -9 -53 -11 -63 -2
-10 -6 -48 -9 -85 -3 -37 -8 -89 -11 -117 -11 -109 -5 -399 11 -530 2 -16 6
-55 10 -85 8 -73 50 -260 79 -357 65 -214 171 -422 310 -608 55 -73 229 -255
301 -315 96 -79 278 -196 385 -247 213 -102 490 -182 715 -209 28 -3 53 -8 56
-9 28 -18 567 -26 704 -12 78 9 82 9 215 32 450 76 851 280 1170 595 198 195
330 378 458 635 43 86 102 220 102 232 0 2 -53 29 -117 59 -65 31 -144 68
-176 84 l-59 29 -25 -57 c-236 -534 -562 -886 -977 -1052 -348 -139 -761 -123
-1065 43 -321 175 -522 461 -620 887 -17 73 -23 106 -37 190 -1 8 -5 40 -8 70
-3 30 -8 64 -11 75 -32 145 -25 865 10 1080 3 17 8 50 11 75 60 471 270 909
514 1077 111 76 268 139 395 157 23 4 52 9 65 12 45 10 323 12 390 3 238 -33
452 -138 479 -235 13 -45 1 -82 -55 -179 -99 -171 -153 -292 -179 -400 -14
-61 -15 -71 -16 -140 -3 -177 48 -309 160 -423 114 -114 258 -166 461 -165
104 1 140 6 215 28 216 63 377 217 450 430 9 28 19 61 21 75 2 14 9 47 14 73
14 70 12 240 -4 332 -58 326 -299 616 -663 799 -166 83 -420 154 -644 181 -30
3 -70 8 -89 11 -39 6 -556 15 -561 10z"/>
</g>
</svg>
